<svg width="31" height="22" viewBox="0 0 31 22" fill="none" xmlns="http://www.w3.org/2000/svg">
<path d="M7.0986 21.9924C5.42575 21.9922 3.81658 21.3686 2.60222 20.2498C1.38786 19.1311 0.660686 17.6023 0.570326 15.978C0.479965 14.3537 1.03329 12.7576 2.11646 11.518C3.19962 10.2784 4.73021 9.48963 6.39328 9.31403C5.90117 7.44704 6.19195 5.46643 7.20164 3.80792C8.21133 2.14941 9.85723 0.948853 11.7773 0.470353C13.6973 -0.00814644 15.7342 0.274609 17.4398 1.25642C19.1455 2.23823 20.3801 3.83866 20.8722 5.70565C22.0143 5.54965 23.1772 5.62381 24.2885 5.92352C25.3998 6.22323 26.4358 6.74209 27.3321 7.44781C28.2284 8.15353 28.9657 9.03103 29.4983 10.0257C30.0309 11.0204 30.3472 12.111 30.4278 13.2297C30.5083 14.3483 30.3513 15.4712 29.9664 16.5283C29.5816 17.5854 28.9772 18.5542 28.1907 19.3745C27.4043 20.1947 26.4528 20.8489 25.3952 21.2962C24.3377 21.7435 23.1968 21.9745 22.0435 21.9747L7.0986 21.9924Z" fill="white"/>
</svg>
