<svg width="146" height="119" viewBox="0 0 146 119" fill="none" xmlns="http://www.w3.org/2000/svg">
<g filter="url(#filter0_di_220_191)">
<path fill-rule="evenodd" clip-rule="evenodd" d="M112.778 0.358669C111.077 0.122235 109.339 0 107.572 0C86.9651 0 70.2598 16.6331 70.2598 37.1512C70.2598 57.6692 86.9651 74.3023 107.572 74.3023C123.071 74.3023 136.363 64.8936 142 51.4997C141.636 51.5107 141.271 51.5163 140.905 51.5163C122.084 51.5163 106.826 36.8791 106.826 18.8232C106.826 11.9718 109.023 5.61265 112.778 0.358669Z" fill="url(#paint0_linear_220_191)"/>
</g>
<mask id="path-2-inside-1_220_191" fill="white">
<path fill-rule="evenodd" clip-rule="evenodd" d="M105.596 118.884L49.6531 118.884C22.2304 118.884 0 96.7062 0 69.3488C0 41.9915 22.2304 19.814 49.6531 19.814C71.7037 19.814 90.3972 34.1535 96.8749 53.9952C99.6534 53.2402 102.577 52.8372 105.596 52.8372C123.877 52.8372 138.698 67.6222 138.698 85.8605C138.698 104.099 123.877 118.884 105.596 118.884C105.596 118.884 105.596 118.884 105.596 118.884Z"/>
</mask>
<g filter="url(#filter1_i_220_191)">
<path fill-rule="evenodd" clip-rule="evenodd" d="M105.596 118.884L49.6531 118.884C22.2304 118.884 0 96.7062 0 69.3488C0 41.9915 22.2304 19.814 49.6531 19.814C71.7037 19.814 90.3972 34.1535 96.8749 53.9952C99.6534 53.2402 102.577 52.8372 105.596 52.8372C123.877 52.8372 138.698 67.6222 138.698 85.8605C138.698 104.099 123.877 118.884 105.596 118.884C105.596 118.884 105.596 118.884 105.596 118.884Z" fill="url(#paint1_linear_220_191)"/>
</g>
<path d="M49.6531 118.884L49.6531 117.884H49.6531V118.884ZM105.596 118.884L105.596 119.884H105.596V118.884ZM96.8749 53.9952L95.9243 54.3056L96.2195 55.2096L97.1372 54.9602L96.8749 53.9952ZM49.6531 119.884L105.596 119.884L105.596 117.884L49.6531 117.884L49.6531 119.884ZM-1 69.3488C-1 97.2607 21.6804 119.884 49.6531 119.884V117.884C22.7805 117.884 1 96.1517 1 69.3488H-1ZM49.6531 18.814C21.6804 18.814 -1 41.437 -1 69.3488H1C1 42.546 22.7805 20.814 49.6531 20.814V18.814ZM97.8256 53.6849C91.217 33.4427 72.1478 18.814 49.6531 18.814V20.814C71.2596 20.814 89.5773 34.8643 95.9243 54.3056L97.8256 53.6849ZM97.1372 54.9602C99.8309 54.2282 102.667 53.8372 105.596 53.8372V51.8372C102.488 51.8372 99.4759 52.2522 96.6127 53.0302L97.1372 54.9602ZM105.596 53.8372C123.327 53.8372 137.698 68.1768 137.698 85.8605H139.698C139.698 67.0677 124.427 51.8372 105.596 51.8372V53.8372ZM137.698 85.8605C137.698 103.544 123.327 117.884 105.596 117.884V119.884C124.427 119.884 139.698 104.653 139.698 85.8605H137.698ZM105.596 117.884C105.543 117.884 105.493 117.888 105.446 117.895C105.4 117.902 105.357 117.912 105.318 117.923C105.279 117.934 105.245 117.947 105.214 117.959C105.184 117.972 105.158 117.984 105.136 117.996C105.114 118.007 105.095 118.018 105.08 118.027C105.065 118.036 105.052 118.044 105.043 118.051C105.033 118.057 105.026 118.062 105.021 118.065C105.019 118.067 105.017 118.068 105.016 118.069C105.016 118.069 105.015 118.07 105.015 118.07C105.015 118.07 105.015 118.07 105.014 118.07C105.014 118.07 105.014 118.07 105.014 118.07C105.014 118.07 105.014 118.07 105.014 118.07C105.014 118.07 105.014 118.07 105.014 118.07C105.014 118.07 105.017 118.068 105.021 118.065C105.026 118.062 105.033 118.057 105.043 118.051C105.052 118.044 105.065 118.036 105.08 118.027C105.095 118.018 105.114 118.007 105.136 117.996C105.158 117.984 105.184 117.972 105.214 117.959C105.244 117.947 105.279 117.934 105.318 117.923C105.357 117.912 105.4 117.902 105.446 117.895C105.493 117.888 105.543 117.884 105.596 117.884V119.884C105.648 119.884 105.698 119.88 105.745 119.873C105.792 119.865 105.835 119.856 105.873 119.844C105.912 119.833 105.947 119.821 105.977 119.808C106.007 119.796 106.033 119.783 106.055 119.772C106.077 119.761 106.096 119.75 106.111 119.741C106.126 119.731 106.139 119.723 106.149 119.717C106.158 119.711 106.166 119.705 106.17 119.702C106.172 119.701 106.174 119.699 106.175 119.699C106.176 119.698 106.176 119.698 106.176 119.698C106.177 119.698 106.177 119.698 106.177 119.698C106.177 119.698 106.177 119.698 106.177 119.697C106.177 119.697 106.177 119.697 106.177 119.697C106.177 119.697 106.177 119.697 106.177 119.697C106.177 119.697 106.174 119.7 106.17 119.702C106.166 119.705 106.158 119.711 106.149 119.717C106.139 119.723 106.126 119.731 106.111 119.741C106.096 119.75 106.077 119.761 106.055 119.772C106.033 119.783 106.007 119.796 105.977 119.808C105.947 119.821 105.912 119.833 105.874 119.844C105.835 119.856 105.792 119.865 105.745 119.873C105.698 119.88 105.648 119.884 105.596 119.884V117.884Z" fill="black" fill-opacity="0.05" mask="url(#path-2-inside-1_220_191)"/>
<defs>
<filter id="filter0_di_220_191" x="45.2598" y="0" width="100.74" height="89.3023" filterUnits="userSpaceOnUse" color-interpolation-filters="sRGB">
<feFlood flood-opacity="0" result="BackgroundImageFix"/>
<feColorMatrix in="SourceAlpha" type="matrix" values="0 0 0 0 0 0 0 0 0 0 0 0 0 0 0 0 0 0 127 0" result="hardAlpha"/>
<feOffset dy="4"/>
<feGaussianBlur stdDeviation="2"/>
<feComposite in2="hardAlpha" operator="out"/>
<feColorMatrix type="matrix" values="0 0 0 0 0 0 0 0 0 0 0 0 0 0 0 0 0 0 0.25 0"/>
<feBlend mode="normal" in2="BackgroundImageFix" result="effect1_dropShadow_220_191"/>
<feBlend mode="normal" in="SourceGraphic" in2="effect1_dropShadow_220_191" result="shape"/>
<feColorMatrix in="SourceAlpha" type="matrix" values="0 0 0 0 0 0 0 0 0 0 0 0 0 0 0 0 0 0 127 0" result="hardAlpha"/>
<feOffset dx="-25" dy="15"/>
<feGaussianBlur stdDeviation="12.5"/>
<feComposite in2="hardAlpha" operator="arithmetic" k2="-1" k3="1"/>
<feColorMatrix type="matrix" values="0 0 0 0 0.607843 0 0 0 0 0.529412 0 0 0 0 0.921569 0 0 0 1 0"/>
<feBlend mode="normal" in2="shape" result="effect2_innerShadow_220_191"/>
</filter>
<filter id="filter1_i_220_191" x="0" y="19.814" width="138.698" height="147.717" filterUnits="userSpaceOnUse" color-interpolation-filters="sRGB">
<feFlood flood-opacity="0" result="BackgroundImageFix"/>
<feBlend mode="normal" in="SourceGraphic" in2="BackgroundImageFix" result="shape"/>
<feColorMatrix in="SourceAlpha" type="matrix" values="0 0 0 0 0 0 0 0 0 0 0 0 0 0 0 0 0 0 127 0" result="hardAlpha"/>
<feOffset dy="48.6468"/>
<feGaussianBlur stdDeviation="30"/>
<feComposite in2="hardAlpha" operator="arithmetic" k2="-1" k3="1"/>
<feColorMatrix type="matrix" values="0 0 0 0 1 0 0 0 0 1 0 0 0 0 1 0 0 0 1 0"/>
<feBlend mode="normal" in2="shape" result="effect1_innerShadow_220_191"/>
</filter>
<linearGradient id="paint0_linear_220_191" x1="74.4885" y1="-8.5023e-06" x2="128.134" y2="84.9149" gradientUnits="userSpaceOnUse">
<stop stop-color="#9B87EB"/>
<stop offset="0.659096" stop-color="#3010AC"/>
</linearGradient>
<linearGradient id="paint1_linear_220_191" x1="9.71654" y1="19.814" x2="138.519" y2="119.168" gradientUnits="userSpaceOnUse">
<stop stop-color="white"/>
<stop offset="1" stop-color="#C1C1C1"/>
</linearGradient>
</defs>
</svg>
