<svg width="146" height="184" viewBox="0 0 146 184" fill="none" xmlns="http://www.w3.org/2000/svg">
<g filter="url(#filter0_f_219_141)">
<path fill-rule="evenodd" clip-rule="evenodd" d="M70.4817 103.795H48.5764L38.5552 137.144H49.676L40.4181 171.414L71.124 129.682L54.7747 129.682L70.4817 103.795Z" fill="url(#paint0_linear_219_141)"/>
</g>
<g style="mix-blend-mode:color-burn" opacity="0.5" filter="url(#filter1_f_219_141)">
<path fill-rule="evenodd" clip-rule="evenodd" d="M84.3717 142.185C83.3446 144.249 81.2626 145.661 78.8613 145.661C75.4417 145.661 72.6695 142.797 72.6695 139.265C72.6695 138.759 72.7242 138.247 72.8283 137.727C72.3301 138.957 72.0504 140.13 72.0504 141.275C72.0504 144.807 74.8225 147.67 78.2421 147.67C81.3626 147.67 83.9438 145.286 84.3717 142.185Z" fill="url(#paint1_radial_219_141)" fill-opacity="0.3"/>
</g>
<path opacity="0.5" d="M84.372 141.243C84.372 144.775 81.5998 147.639 78.1802 147.639C74.7606 147.639 71.9884 144.775 71.9884 141.243C71.9884 137.711 74.6509 133.91 78.1802 129.021C81.1522 133.776 84.372 137.711 84.372 141.243Z" fill="url(#paint2_radial_219_141)"/>
<g style="mix-blend-mode:screen" opacity="0.3">
<ellipse cx="79.7591" cy="135.986" rx="6.34658" ry="6.69709" fill="url(#paint3_radial_219_141)"/>
</g>
<g style="mix-blend-mode:screen" opacity="0.3">
<ellipse cx="76.1679" cy="143.285" rx="6.34658" ry="6.69709" fill="url(#paint4_radial_219_141)"/>
</g>
<g style="mix-blend-mode:color-burn" opacity="0.5" filter="url(#filter2_f_219_141)">
<path fill-rule="evenodd" clip-rule="evenodd" d="M114.335 146.203C113.308 148.367 111.226 149.847 108.825 149.847C105.405 149.847 102.633 146.845 102.633 143.142C102.633 142.611 102.687 142.074 102.792 141.529C102.293 142.818 102.014 144.048 102.014 145.248C102.014 148.952 104.786 151.954 108.205 151.954C111.326 151.954 113.907 149.454 114.335 146.203Z" fill="url(#paint5_radial_219_141)" fill-opacity="0.3"/>
</g>
<path opacity="0.5" d="M114.335 145.215C114.335 148.918 111.563 151.92 108.143 151.92C104.724 151.92 101.952 148.918 101.952 145.215C101.952 141.512 104.614 137.527 108.143 132.402C111.116 137.387 114.335 141.512 114.335 145.215Z" fill="url(#paint6_radial_219_141)"/>
<g style="mix-blend-mode:screen" opacity="0.3">
<ellipse cx="109.722" cy="139.704" rx="6.34658" ry="7.02115" fill="url(#paint7_radial_219_141)"/>
</g>
<g style="mix-blend-mode:screen" opacity="0.3">
<ellipse cx="106.131" cy="147.357" rx="6.34658" ry="7.02115" fill="url(#paint8_radial_219_141)"/>
</g>
<g style="mix-blend-mode:color-burn" opacity="0.5" filter="url(#filter3_f_219_141)">
<path fill-rule="evenodd" clip-rule="evenodd" d="M100.787 168.66C99.4519 171.323 96.7453 173.145 93.6237 173.145C89.1782 173.145 85.5744 169.45 85.5744 164.892C85.5744 164.238 85.6456 163.578 85.781 162.907C85.1332 164.493 84.7695 166.007 84.7695 167.484C84.7695 172.042 88.3733 175.737 92.8188 175.737C96.8751 175.737 100.231 172.661 100.787 168.66Z" fill="url(#paint9_radial_219_141)" fill-opacity="0.3"/>
</g>
<path opacity="0.5" d="M100.788 167.444C100.788 172.001 97.1838 175.696 92.7383 175.696C88.2928 175.696 84.689 172.001 84.689 167.444C84.689 162.886 88.1502 157.981 92.7383 151.673C96.602 157.809 100.788 162.886 100.788 167.444Z" fill="url(#paint10_radial_219_141)"/>
<g style="mix-blend-mode:screen" opacity="0.3">
<ellipse cx="94.7908" cy="160.66" rx="8.25056" ry="8.64141" fill="url(#paint11_radial_219_141)"/>
</g>
<g style="mix-blend-mode:screen" opacity="0.3">
<ellipse cx="90.1223" cy="170.079" rx="8.25056" ry="8.64141" fill="url(#paint12_radial_219_141)"/>
</g>
<g filter="url(#filter4_di_219_141)">
<path fill-rule="evenodd" clip-rule="evenodd" d="M112.082 0.367203C110.34 0.125143 108.561 0 106.753 0C85.6548 0 68.5518 17.0292 68.5518 38.0357C68.5518 59.0423 85.6548 76.0714 106.753 76.0714C122.62 76.0714 136.228 66.4387 142 52.7259C141.628 52.7372 141.254 52.7429 140.879 52.7429C121.609 52.7429 105.988 37.7572 105.988 19.2714C105.988 12.2569 108.238 5.74628 112.082 0.367203Z" fill="url(#paint13_linear_219_141)"/>
</g>
<mask id="path-15-inside-1_219_141" fill="white">
<path fill-rule="evenodd" clip-rule="evenodd" d="M108.11 124.081L50.8353 124.081C22.7597 124.081 0 101.375 0 73.3667C0 45.358 22.7597 22.6524 50.8353 22.6524C73.4109 22.6524 92.5494 37.3334 99.1814 57.6475C102.026 56.8745 105.02 56.4619 108.11 56.4619C126.827 56.4619 142 71.5989 142 90.2714C142 108.944 126.827 124.081 108.11 124.081C108.11 124.081 108.11 124.081 108.11 124.081Z"/>
</mask>
<g filter="url(#filter5_i_219_141)">
<path fill-rule="evenodd" clip-rule="evenodd" d="M108.11 124.081L50.8353 124.081C22.7597 124.081 0 101.375 0 73.3667C0 45.358 22.7597 22.6524 50.8353 22.6524C73.4109 22.6524 92.5494 37.3334 99.1814 57.6475C102.026 56.8745 105.02 56.4619 108.11 56.4619C126.827 56.4619 142 71.5989 142 90.2714C142 108.944 126.827 124.081 108.11 124.081C108.11 124.081 108.11 124.081 108.11 124.081Z" fill="url(#paint14_linear_219_141)"/>
</g>
<path d="M50.8353 124.081L50.8353 123.081H50.8353V124.081ZM108.11 124.081L108.11 125.081H108.11V124.081ZM99.1814 57.6475L98.2308 57.9578L98.526 58.8619L99.4437 58.6125L99.1814 57.6475ZM50.8353 125.081L108.11 125.081L108.11 123.081L50.8353 123.081L50.8353 125.081ZM-1 73.3667C-1 101.93 22.2097 125.081 50.8353 125.081V123.081C23.3098 123.081 1 100.821 1 73.3667H-1ZM50.8353 21.6524C22.2097 21.6524 -1 44.8034 -1 73.3667H1C1 45.9125 23.3098 23.6524 50.8353 23.6524V21.6524ZM100.132 57.3371C93.3693 36.6226 73.855 21.6524 50.8353 21.6524V23.6524C72.9668 23.6524 91.7295 38.0441 98.2308 57.9578L100.132 57.3371ZM99.4437 58.6125C102.204 57.8625 105.109 57.4619 108.11 57.4619V55.4619C104.93 55.4619 101.849 55.8865 98.9192 56.6825L99.4437 58.6125ZM108.11 57.4619C126.277 57.4619 141 72.1535 141 90.2714H143C143 71.0444 127.377 55.4619 108.11 55.4619V57.4619ZM141 90.2714C141 108.389 126.277 123.081 108.11 123.081V125.081C127.377 125.081 143 109.498 143 90.2714H141ZM108.11 123.081C108.054 123.081 108 123.086 107.949 123.094C107.899 123.102 107.852 123.114 107.81 123.127C107.768 123.14 107.73 123.155 107.698 123.17C107.665 123.184 107.637 123.199 107.614 123.213C107.59 123.226 107.57 123.239 107.554 123.25C107.538 123.26 107.524 123.27 107.515 123.277C107.505 123.285 107.497 123.291 107.492 123.294C107.49 123.296 107.488 123.298 107.487 123.299C107.486 123.299 107.486 123.299 107.486 123.3C107.485 123.3 107.485 123.3 107.485 123.3C107.485 123.3 107.485 123.3 107.485 123.3C107.485 123.3 107.485 123.3 107.485 123.3C107.485 123.3 107.485 123.3 107.485 123.3C107.484 123.301 107.488 123.298 107.492 123.294C107.497 123.291 107.505 123.285 107.515 123.277C107.524 123.27 107.538 123.26 107.554 123.25C107.57 123.239 107.59 123.226 107.614 123.213C107.637 123.199 107.665 123.184 107.698 123.17C107.73 123.155 107.768 123.14 107.81 123.127C107.852 123.114 107.898 123.102 107.949 123.094C108 123.086 108.054 123.081 108.11 123.081V125.081C108.166 125.081 108.219 125.076 108.27 125.068C108.321 125.06 108.368 125.048 108.41 125.035C108.452 125.022 108.489 125.007 108.522 124.992C108.554 124.977 108.582 124.963 108.606 124.949C108.629 124.936 108.649 124.923 108.666 124.912C108.682 124.901 108.695 124.892 108.705 124.884C108.715 124.877 108.723 124.871 108.727 124.868C108.73 124.866 108.732 124.864 108.733 124.863C108.733 124.863 108.734 124.862 108.734 124.862C108.734 124.862 108.734 124.862 108.734 124.862C108.734 124.862 108.734 124.862 108.734 124.862C108.734 124.862 108.734 124.862 108.734 124.862C108.734 124.862 108.734 124.862 108.734 124.862C108.735 124.861 108.731 124.864 108.727 124.868C108.723 124.871 108.715 124.877 108.705 124.884C108.695 124.892 108.682 124.901 108.666 124.912C108.65 124.923 108.629 124.936 108.606 124.949C108.582 124.963 108.554 124.977 108.522 124.992C108.489 125.007 108.452 125.022 108.41 125.035C108.368 125.048 108.321 125.06 108.27 125.068C108.219 125.076 108.166 125.081 108.11 125.081V123.081Z" fill="black" fill-opacity="0.05" mask="url(#path-15-inside-1_219_141)"/>
<defs>
<filter id="filter0_f_219_141" x="33.5552" y="98.7952" width="42.5688" height="77.619" filterUnits="userSpaceOnUse" color-interpolation-filters="sRGB">
<feFlood flood-opacity="0" result="BackgroundImageFix"/>
<feBlend mode="normal" in="SourceGraphic" in2="BackgroundImageFix" result="shape"/>
<feGaussianBlur stdDeviation="2.5" result="effect1_foregroundBlur_219_141"/>
</filter>
<filter id="filter1_f_219_141" x="64.0504" y="129.727" width="28.3214" height="25.943" filterUnits="userSpaceOnUse" color-interpolation-filters="sRGB">
<feFlood flood-opacity="0" result="BackgroundImageFix"/>
<feBlend mode="normal" in="SourceGraphic" in2="BackgroundImageFix" result="shape"/>
<feGaussianBlur stdDeviation="4" result="effect1_foregroundBlur_219_141"/>
</filter>
<filter id="filter2_f_219_141" x="94.0136" y="133.529" width="28.3213" height="26.4243" filterUnits="userSpaceOnUse" color-interpolation-filters="sRGB">
<feFlood flood-opacity="0" result="BackgroundImageFix"/>
<feBlend mode="normal" in="SourceGraphic" in2="BackgroundImageFix" result="shape"/>
<feGaussianBlur stdDeviation="4" result="effect1_foregroundBlur_219_141"/>
</filter>
<filter id="filter3_f_219_141" x="76.7695" y="154.907" width="32.0176" height="28.8301" filterUnits="userSpaceOnUse" color-interpolation-filters="sRGB">
<feFlood flood-opacity="0" result="BackgroundImageFix"/>
<feBlend mode="normal" in="SourceGraphic" in2="BackgroundImageFix" result="shape"/>
<feGaussianBlur stdDeviation="4" result="effect1_foregroundBlur_219_141"/>
</filter>
<filter id="filter4_di_219_141" x="43.5518" y="0" width="102.448" height="91.0714" filterUnits="userSpaceOnUse" color-interpolation-filters="sRGB">
<feFlood flood-opacity="0" result="BackgroundImageFix"/>
<feColorMatrix in="SourceAlpha" type="matrix" values="0 0 0 0 0 0 0 0 0 0 0 0 0 0 0 0 0 0 127 0" result="hardAlpha"/>
<feOffset dy="4"/>
<feGaussianBlur stdDeviation="2"/>
<feComposite in2="hardAlpha" operator="out"/>
<feColorMatrix type="matrix" values="0 0 0 0 0 0 0 0 0 0 0 0 0 0 0 0 0 0 0.25 0"/>
<feBlend mode="normal" in2="BackgroundImageFix" result="effect1_dropShadow_219_141"/>
<feBlend mode="normal" in="SourceGraphic" in2="effect1_dropShadow_219_141" result="shape"/>
<feColorMatrix in="SourceAlpha" type="matrix" values="0 0 0 0 0 0 0 0 0 0 0 0 0 0 0 0 0 0 127 0" result="hardAlpha"/>
<feOffset dx="-25" dy="15"/>
<feGaussianBlur stdDeviation="12.5"/>
<feComposite in2="hardAlpha" operator="arithmetic" k2="-1" k3="1"/>
<feColorMatrix type="matrix" values="0 0 0 0 0.607843 0 0 0 0 0.529412 0 0 0 0 0.921569 0 0 0 1 0"/>
<feBlend mode="normal" in2="shape" result="effect2_innerShadow_219_141"/>
</filter>
<filter id="filter5_i_219_141" x="0" y="22.6524" width="142" height="150.075" filterUnits="userSpaceOnUse" color-interpolation-filters="sRGB">
<feFlood flood-opacity="0" result="BackgroundImageFix"/>
<feBlend mode="normal" in="SourceGraphic" in2="BackgroundImageFix" result="shape"/>
<feColorMatrix in="SourceAlpha" type="matrix" values="0 0 0 0 0 0 0 0 0 0 0 0 0 0 0 0 0 0 127 0" result="hardAlpha"/>
<feOffset dy="48.6468"/>
<feGaussianBlur stdDeviation="30"/>
<feComposite in2="hardAlpha" operator="arithmetic" k2="-1" k3="1"/>
<feColorMatrix type="matrix" values="0 0 0 0 1 0 0 0 0 1 0 0 0 0 1 0 0 0 1 0"/>
<feBlend mode="normal" in2="shape" result="effect1_innerShadow_219_141"/>
</filter>
<linearGradient id="paint0_linear_219_141" x1="54.8396" y1="103.795" x2="54.8396" y2="171.414" gradientUnits="userSpaceOnUse">
<stop stop-color="#FFE176"/>
<stop offset="0.47859" stop-color="#FEC255"/>
<stop offset="1" stop-color="#FEA031"/>
</linearGradient>
<radialGradient id="paint1_radial_219_141" cx="0" cy="0" r="1" gradientUnits="userSpaceOnUse" gradientTransform="translate(78.2422 141.71) rotate(-39.8876) scale(10.6518 7.79354)">
<stop stop-color="#3CC7F5"/>
<stop offset="0.0001" stop-color="#3CC7F5"/>
<stop offset="1" stop-color="#004DFF"/>
</radialGradient>
<radialGradient id="paint2_radial_219_141" cx="0" cy="0" r="1" gradientUnits="userSpaceOnUse" gradientTransform="translate(78.1802 141.678) rotate(-39.8885) scale(10.6519 7.79366)">
<stop stop-color="#3CC7F5"/>
<stop offset="0.0001" stop-color="#3CC7F5"/>
<stop offset="1" stop-color="#004DFF"/>
</radialGradient>
<radialGradient id="paint3_radial_219_141" cx="0" cy="0" r="1" gradientUnits="userSpaceOnUse" gradientTransform="translate(79.7591 135.986) rotate(58.0492) scale(9.23461 2.61376)">
<stop stop-color="white"/>
<stop offset="0.555017" stop-color="#BDDBF1" stop-opacity="0.25"/>
<stop offset="1" stop-color="#5686F5" stop-opacity="0"/>
</radialGradient>
<radialGradient id="paint4_radial_219_141" cx="0" cy="0" r="1" gradientUnits="userSpaceOnUse" gradientTransform="translate(75.8273 143.285) rotate(51.9207) scale(5.01968 2.40185)">
<stop stop-color="white"/>
<stop offset="0.673987" stop-color="#BDDBF1" stop-opacity="0.25"/>
<stop offset="1" stop-color="#5686F5" stop-opacity="0"/>
</radialGradient>
<radialGradient id="paint5_radial_219_141" cx="0" cy="0" r="1" gradientUnits="userSpaceOnUse" gradientTransform="translate(108.205 145.705) rotate(-41.2253) scale(10.8668 8.0091)">
<stop stop-color="#3CC7F5"/>
<stop offset="0.0001" stop-color="#3CC7F5"/>
<stop offset="1" stop-color="#004DFF"/>
</radialGradient>
<radialGradient id="paint6_radial_219_141" cx="0" cy="0" r="1" gradientUnits="userSpaceOnUse" gradientTransform="translate(108.143 145.672) rotate(-41.2258) scale(10.8669 8.00917)">
<stop stop-color="#3CC7F5"/>
<stop offset="0.0001" stop-color="#3CC7F5"/>
<stop offset="1" stop-color="#004DFF"/>
</radialGradient>
<radialGradient id="paint7_radial_219_141" cx="0" cy="0" r="1" gradientUnits="userSpaceOnUse" gradientTransform="translate(109.722 139.704) rotate(59.252) scale(9.55842 2.6474)">
<stop stop-color="white"/>
<stop offset="0.555017" stop-color="#BDDBF1" stop-opacity="0.25"/>
<stop offset="1" stop-color="#5686F5" stop-opacity="0"/>
</radialGradient>
<radialGradient id="paint8_radial_219_141" cx="0" cy="0" r="1" gradientUnits="userSpaceOnUse" gradientTransform="translate(105.791 147.357) rotate(53.2273) scale(5.17152 2.44413)">
<stop stop-color="white"/>
<stop offset="0.673987" stop-color="#BDDBF1" stop-opacity="0.25"/>
<stop offset="1" stop-color="#5686F5" stop-opacity="0"/>
</radialGradient>
<radialGradient id="paint9_radial_219_141" cx="0" cy="0" r="1" gradientUnits="userSpaceOnUse" gradientTransform="translate(92.8188 168.046) rotate(-39.6781) scale(13.8052 10.0872)">
<stop stop-color="#3CC7F5"/>
<stop offset="0.0001" stop-color="#3CC7F5"/>
<stop offset="1" stop-color="#004DFF"/>
</radialGradient>
<radialGradient id="paint10_radial_219_141" cx="0" cy="0" r="1" gradientUnits="userSpaceOnUse" gradientTransform="translate(92.7383 168.005) rotate(-39.678) scale(13.8052 10.0871)">
<stop stop-color="#3CC7F5"/>
<stop offset="0.0001" stop-color="#3CC7F5"/>
<stop offset="1" stop-color="#004DFF"/>
</radialGradient>
<radialGradient id="paint11_radial_219_141" cx="0" cy="0" r="1" gradientUnits="userSpaceOnUse" gradientTransform="translate(94.7908 160.66) rotate(57.8567) scale(11.9407 3.39074)">
<stop stop-color="white"/>
<stop offset="0.555017" stop-color="#BDDBF1" stop-opacity="0.25"/>
<stop offset="1" stop-color="#5686F5" stop-opacity="0"/>
</radialGradient>
<radialGradient id="paint12_radial_219_141" cx="0" cy="0" r="1" gradientUnits="userSpaceOnUse" gradientTransform="translate(89.6795 170.079) rotate(51.7127) scale(6.49553 3.1135)">
<stop stop-color="white"/>
<stop offset="0.673987" stop-color="#BDDBF1" stop-opacity="0.25"/>
<stop offset="1" stop-color="#5686F5" stop-opacity="0"/>
</radialGradient>
<linearGradient id="paint13_linear_219_141" x1="72.8812" y1="-8.70473e-06" x2="127.804" y2="86.9366" gradientUnits="userSpaceOnUse">
<stop stop-color="#9B87EB"/>
<stop offset="0.659096" stop-color="#3010AC"/>
</linearGradient>
<linearGradient id="paint14_linear_219_141" x1="9.94788" y1="22.6524" x2="141.817" y2="124.372" gradientUnits="userSpaceOnUse">
<stop stop-color="white"/>
<stop offset="1" stop-color="#C1C1C1"/>
</linearGradient>
</defs>
</svg>
