<svg width="146" height="183" viewBox="0 0 146 183" fill="none" xmlns="http://www.w3.org/2000/svg">
<g style="mix-blend-mode:color-burn" opacity="0.5" filter="url(#filter0_f_219_57)">
<path fill-rule="evenodd" clip-rule="evenodd" d="M70.2007 166.858C68.7627 169.854 65.848 171.903 62.4863 171.903C57.6988 171.903 53.8178 167.746 53.8178 162.619C53.8178 161.884 53.8944 161.14 54.0403 160.386C53.3426 162.17 52.9509 163.873 52.9509 165.535C52.9509 170.663 56.8319 174.82 61.6194 174.82C65.9878 174.82 69.6015 171.359 70.2007 166.858Z" fill="url(#paint0_radial_219_57)" fill-opacity="0.3"/>
</g>
<path opacity="0.5" d="M70.2012 165.49C70.2012 170.617 66.3202 174.774 61.5327 174.774C56.7452 174.774 52.8642 170.617 52.8642 165.49C52.8642 160.362 56.5917 154.844 61.5327 147.748C65.6936 154.65 70.2012 160.362 70.2012 165.49Z" fill="url(#paint1_radial_219_57)"/>
<g style="mix-blend-mode:screen" opacity="0.3">
<ellipse cx="63.7432" cy="157.858" rx="8.88521" ry="9.72159" fill="url(#paint2_radial_219_57)"/>
</g>
<g style="mix-blend-mode:screen" opacity="0.3">
<ellipse cx="58.7155" cy="168.455" rx="8.88521" ry="9.72159" fill="url(#paint3_radial_219_57)"/>
</g>
<g style="mix-blend-mode:color-burn" opacity="0.5" filter="url(#filter1_f_219_57)">
<path fill-rule="evenodd" clip-rule="evenodd" d="M85.2796 142.742C83.9957 145.243 81.3932 146.954 78.3917 146.954C74.1172 146.954 70.652 143.484 70.652 139.203C70.652 138.589 70.7204 137.968 70.8506 137.338C70.2277 138.828 69.878 140.25 69.878 141.638C69.878 145.919 73.3432 149.389 77.6177 149.389C81.5181 149.389 84.7446 146.5 85.2796 142.742Z" fill="url(#paint4_radial_219_57)" fill-opacity="0.3"/>
</g>
<path opacity="0.5" d="M85.2801 141.599C85.2801 145.881 81.8149 149.351 77.5403 149.351C73.2658 149.351 69.8006 145.881 69.8006 141.599C69.8006 137.318 73.1287 132.711 77.5403 126.786C81.2554 132.549 85.2801 137.318 85.2801 141.599Z" fill="url(#paint5_radial_219_57)"/>
<g style="mix-blend-mode:screen" opacity="0.3">
<ellipse cx="79.514" cy="135.227" rx="7.93323" ry="8.11708" fill="url(#paint6_radial_219_57)"/>
</g>
<g style="mix-blend-mode:screen" opacity="0.3">
<ellipse cx="75.025" cy="144.075" rx="7.93323" ry="8.11708" fill="url(#paint7_radial_219_57)"/>
</g>
<g style="mix-blend-mode:color-burn" opacity="0.5" filter="url(#filter2_f_219_57)">
<path fill-rule="evenodd" clip-rule="evenodd" d="M102.769 166.857C101.332 169.853 98.4168 171.903 95.0551 171.903C90.2676 171.903 86.3866 167.746 86.3866 162.619C86.3866 161.884 86.4632 161.14 86.6091 160.386C85.9114 162.17 85.5197 163.873 85.5197 165.535C85.5197 170.663 89.4007 174.819 94.1882 174.819C98.5566 174.819 102.17 171.359 102.769 166.857Z" fill="url(#paint8_radial_219_57)" fill-opacity="0.3"/>
</g>
<path opacity="0.5" d="M102.77 165.49C102.77 170.617 98.889 174.774 94.1015 174.774C89.3141 174.774 85.433 170.617 85.433 165.49C85.433 160.362 89.1605 154.844 94.1015 147.748C98.2624 154.65 102.77 160.362 102.77 165.49Z" fill="url(#paint9_radial_219_57)"/>
<g style="mix-blend-mode:screen" opacity="0.3">
<ellipse cx="96.312" cy="157.858" rx="8.88521" ry="9.72159" fill="url(#paint10_radial_219_57)"/>
</g>
<g style="mix-blend-mode:screen" opacity="0.3">
<ellipse cx="91.2843" cy="168.455" rx="8.88521" ry="9.72159" fill="url(#paint11_radial_219_57)"/>
</g>
<g style="mix-blend-mode:color-burn" opacity="0.5" filter="url(#filter3_f_219_57)">
<path fill-rule="evenodd" clip-rule="evenodd" d="M53.3622 142.61C52.0783 145.112 49.4758 146.823 46.4743 146.823C42.1998 146.823 38.7346 143.352 38.7346 139.071C38.7346 138.457 38.803 137.837 38.9332 137.206C38.3103 138.696 37.9606 140.118 37.9606 141.506C37.9606 145.787 41.4258 149.258 45.7003 149.258C49.6006 149.258 52.8271 146.368 53.3622 142.61Z" fill="url(#paint12_radial_219_57)" fill-opacity="0.3"/>
</g>
<path opacity="0.5" d="M53.3626 141.468C53.3626 145.749 49.8975 149.22 45.6229 149.22C41.3484 149.22 37.8832 145.749 37.8832 141.468C37.8832 137.187 41.2113 132.58 45.6229 126.654C49.338 132.417 53.3626 137.187 53.3626 141.468Z" fill="url(#paint13_radial_219_57)"/>
<g style="mix-blend-mode:screen" opacity="0.3">
<ellipse cx="47.5966" cy="135.096" rx="7.93323" ry="8.11708" fill="url(#paint14_radial_219_57)"/>
</g>
<g style="mix-blend-mode:screen" opacity="0.3">
<ellipse cx="43.1075" cy="143.944" rx="7.93323" ry="8.11708" fill="url(#paint15_radial_219_57)"/>
</g>
<g style="mix-blend-mode:color-burn" opacity="0.5" filter="url(#filter4_f_219_57)">
<path fill-rule="evenodd" clip-rule="evenodd" d="M116.871 142.741C115.587 145.243 112.985 146.954 109.983 146.954C105.709 146.954 102.244 143.484 102.244 139.203C102.244 138.589 102.312 137.968 102.442 137.338C101.819 138.828 101.47 140.25 101.47 141.638C101.47 145.919 104.935 149.389 109.209 149.389C113.11 149.389 116.336 146.5 116.871 142.741Z" fill="url(#paint16_radial_219_57)" fill-opacity="0.3"/>
</g>
<path opacity="0.5" d="M116.872 141.599C116.872 145.881 113.407 149.351 109.132 149.351C104.857 149.351 101.392 145.881 101.392 141.599C101.392 137.318 104.72 132.711 109.132 126.786C112.847 132.549 116.872 137.318 116.872 141.599Z" fill="url(#paint17_radial_219_57)"/>
<g style="mix-blend-mode:screen" opacity="0.3">
<ellipse cx="111.106" cy="135.227" rx="7.93323" ry="8.11708" fill="url(#paint18_radial_219_57)"/>
</g>
<g style="mix-blend-mode:screen" opacity="0.3">
<ellipse cx="106.617" cy="144.075" rx="7.93323" ry="8.11708" fill="url(#paint19_radial_219_57)"/>
</g>
<g filter="url(#filter5_di_219_57)">
<path fill-rule="evenodd" clip-rule="evenodd" d="M112.082 0.367198C110.34 0.125142 108.561 0 106.753 0C85.6548 0 68.5518 17.0292 68.5518 38.0357C68.5518 59.0423 85.6548 76.0714 106.753 76.0714C122.62 76.0714 136.228 66.4387 142 52.7259C141.628 52.7372 141.254 52.7428 140.879 52.7428C121.609 52.7428 105.988 37.7572 105.988 19.2714C105.988 12.2569 108.238 5.74627 112.082 0.367198Z" fill="url(#paint20_linear_219_57)"/>
</g>
<mask id="path-22-inside-1_219_57" fill="white">
<path fill-rule="evenodd" clip-rule="evenodd" d="M108.11 124.081L50.8353 124.081C22.7597 124.081 0 101.375 0 73.3666C0 45.3579 22.7597 22.6524 50.8353 22.6524C73.4109 22.6524 92.5494 37.3333 99.1815 57.6475C102.026 56.8745 105.02 56.4619 108.11 56.4619C126.827 56.4619 142 71.5989 142 90.2714C142 108.944 126.827 124.081 108.11 124.081C108.11 124.081 108.11 124.081 108.11 124.081Z"/>
</mask>
<g filter="url(#filter6_i_219_57)">
<path fill-rule="evenodd" clip-rule="evenodd" d="M108.11 124.081L50.8353 124.081C22.7597 124.081 0 101.375 0 73.3666C0 45.3579 22.7597 22.6524 50.8353 22.6524C73.4109 22.6524 92.5494 37.3333 99.1815 57.6475C102.026 56.8745 105.02 56.4619 108.11 56.4619C126.827 56.4619 142 71.5989 142 90.2714C142 108.944 126.827 124.081 108.11 124.081C108.11 124.081 108.11 124.081 108.11 124.081Z" fill="url(#paint21_linear_219_57)"/>
</g>
<path d="M50.8353 124.081L50.8353 123.081H50.8353V124.081ZM108.11 124.081L108.11 125.081H108.11V124.081ZM99.1815 57.6475L98.2308 57.9578L98.526 58.8619L99.4437 58.6125L99.1815 57.6475ZM50.8353 125.081L108.11 125.081L108.11 123.081L50.8353 123.081L50.8353 125.081ZM-1 73.3666C-1 101.93 22.2097 125.081 50.8353 125.081V123.081C23.3098 123.081 1 100.821 1 73.3666H-1ZM50.8353 21.6524C22.2097 21.6524 -1 44.8034 -1 73.3666H1C1 45.9125 23.3098 23.6524 50.8353 23.6524V21.6524ZM100.132 57.3371C93.3693 36.6226 73.855 21.6524 50.8353 21.6524V23.6524C72.9668 23.6524 91.7295 38.0441 98.2308 57.9578L100.132 57.3371ZM99.4437 58.6125C102.204 57.8625 105.109 57.4619 108.11 57.4619V55.4619C104.93 55.4619 101.849 55.8865 98.9192 56.6825L99.4437 58.6125ZM108.11 57.4619C126.277 57.4619 141 72.1535 141 90.2714H143C143 71.0444 127.377 55.4619 108.11 55.4619V57.4619ZM141 90.2714C141 108.389 126.277 123.081 108.11 123.081V125.081C127.377 125.081 143 109.498 143 90.2714H141ZM108.11 123.081C108.054 123.081 108 123.086 107.949 123.094C107.899 123.102 107.852 123.114 107.81 123.127C107.768 123.14 107.73 123.155 107.698 123.17C107.665 123.184 107.637 123.199 107.614 123.213C107.59 123.226 107.57 123.239 107.554 123.25C107.538 123.26 107.524 123.27 107.515 123.277C107.505 123.285 107.497 123.291 107.492 123.294C107.49 123.296 107.488 123.298 107.487 123.299C107.486 123.299 107.486 123.299 107.486 123.3C107.485 123.3 107.485 123.3 107.485 123.3C107.485 123.3 107.485 123.3 107.485 123.3C107.485 123.3 107.485 123.3 107.485 123.3C107.485 123.3 107.485 123.3 107.485 123.3C107.484 123.301 107.488 123.298 107.492 123.294C107.497 123.291 107.505 123.285 107.515 123.277C107.524 123.27 107.538 123.26 107.554 123.25C107.57 123.239 107.59 123.226 107.614 123.213C107.637 123.199 107.665 123.184 107.698 123.17C107.73 123.155 107.768 123.14 107.81 123.127C107.852 123.114 107.898 123.102 107.949 123.094C108 123.086 108.054 123.081 108.11 123.081V125.081C108.166 125.081 108.219 125.076 108.27 125.068C108.321 125.06 108.368 125.048 108.41 125.035C108.452 125.022 108.489 125.007 108.522 124.992C108.554 124.977 108.582 124.963 108.606 124.949C108.629 124.936 108.649 124.923 108.666 124.912C108.682 124.901 108.695 124.892 108.705 124.884C108.715 124.877 108.723 124.871 108.727 124.868C108.73 124.866 108.732 124.864 108.733 124.863C108.733 124.863 108.734 124.862 108.734 124.862C108.734 124.862 108.734 124.862 108.734 124.862C108.734 124.862 108.734 124.862 108.734 124.862C108.734 124.862 108.734 124.862 108.734 124.862C108.734 124.862 108.734 124.862 108.734 124.862C108.735 124.861 108.731 124.864 108.727 124.868C108.723 124.871 108.715 124.877 108.705 124.884C108.695 124.892 108.682 124.901 108.666 124.912C108.65 124.923 108.629 124.936 108.606 124.949C108.582 124.963 108.554 124.977 108.522 124.992C108.489 125.007 108.452 125.022 108.41 125.035C108.368 125.048 108.321 125.06 108.27 125.068C108.219 125.076 108.166 125.081 108.11 125.081V123.081Z" fill="black" fill-opacity="0.05" mask="url(#path-22-inside-1_219_57)"/>
<defs>
<filter id="filter0_f_219_57" x="44.9509" y="152.386" width="33.2498" height="30.4339" filterUnits="userSpaceOnUse" color-interpolation-filters="sRGB">
<feFlood flood-opacity="0" result="BackgroundImageFix"/>
<feBlend mode="normal" in="SourceGraphic" in2="BackgroundImageFix" result="shape"/>
<feGaussianBlur stdDeviation="4" result="effect1_foregroundBlur_219_57"/>
</filter>
<filter id="filter1_f_219_57" x="61.878" y="129.338" width="31.4016" height="28.0515" filterUnits="userSpaceOnUse" color-interpolation-filters="sRGB">
<feFlood flood-opacity="0" result="BackgroundImageFix"/>
<feBlend mode="normal" in="SourceGraphic" in2="BackgroundImageFix" result="shape"/>
<feGaussianBlur stdDeviation="4" result="effect1_foregroundBlur_219_57"/>
</filter>
<filter id="filter2_f_219_57" x="77.5197" y="152.386" width="33.2498" height="30.4338" filterUnits="userSpaceOnUse" color-interpolation-filters="sRGB">
<feFlood flood-opacity="0" result="BackgroundImageFix"/>
<feBlend mode="normal" in="SourceGraphic" in2="BackgroundImageFix" result="shape"/>
<feGaussianBlur stdDeviation="4" result="effect1_foregroundBlur_219_57"/>
</filter>
<filter id="filter3_f_219_57" x="29.9606" y="129.206" width="31.4016" height="28.0516" filterUnits="userSpaceOnUse" color-interpolation-filters="sRGB">
<feFlood flood-opacity="0" result="BackgroundImageFix"/>
<feBlend mode="normal" in="SourceGraphic" in2="BackgroundImageFix" result="shape"/>
<feGaussianBlur stdDeviation="4" result="effect1_foregroundBlur_219_57"/>
</filter>
<filter id="filter4_f_219_57" x="93.4697" y="129.338" width="31.4016" height="28.0514" filterUnits="userSpaceOnUse" color-interpolation-filters="sRGB">
<feFlood flood-opacity="0" result="BackgroundImageFix"/>
<feBlend mode="normal" in="SourceGraphic" in2="BackgroundImageFix" result="shape"/>
<feGaussianBlur stdDeviation="4" result="effect1_foregroundBlur_219_57"/>
</filter>
<filter id="filter5_di_219_57" x="43.5518" y="0" width="102.448" height="91.0714" filterUnits="userSpaceOnUse" color-interpolation-filters="sRGB">
<feFlood flood-opacity="0" result="BackgroundImageFix"/>
<feColorMatrix in="SourceAlpha" type="matrix" values="0 0 0 0 0 0 0 0 0 0 0 0 0 0 0 0 0 0 127 0" result="hardAlpha"/>
<feOffset dy="4"/>
<feGaussianBlur stdDeviation="2"/>
<feComposite in2="hardAlpha" operator="out"/>
<feColorMatrix type="matrix" values="0 0 0 0 0 0 0 0 0 0 0 0 0 0 0 0 0 0 0.25 0"/>
<feBlend mode="normal" in2="BackgroundImageFix" result="effect1_dropShadow_219_57"/>
<feBlend mode="normal" in="SourceGraphic" in2="effect1_dropShadow_219_57" result="shape"/>
<feColorMatrix in="SourceAlpha" type="matrix" values="0 0 0 0 0 0 0 0 0 0 0 0 0 0 0 0 0 0 127 0" result="hardAlpha"/>
<feOffset dx="-25" dy="15"/>
<feGaussianBlur stdDeviation="12.5"/>
<feComposite in2="hardAlpha" operator="arithmetic" k2="-1" k3="1"/>
<feColorMatrix type="matrix" values="0 0 0 0 0.607843 0 0 0 0 0.529412 0 0 0 0 0.921569 0 0 0 1 0"/>
<feBlend mode="normal" in2="shape" result="effect2_innerShadow_219_57"/>
</filter>
<filter id="filter6_i_219_57" x="0" y="22.6524" width="142" height="150.075" filterUnits="userSpaceOnUse" color-interpolation-filters="sRGB">
<feFlood flood-opacity="0" result="BackgroundImageFix"/>
<feBlend mode="normal" in="SourceGraphic" in2="BackgroundImageFix" result="shape"/>
<feColorMatrix in="SourceAlpha" type="matrix" values="0 0 0 0 0 0 0 0 0 0 0 0 0 0 0 0 0 0 127 0" result="hardAlpha"/>
<feOffset dy="48.6468"/>
<feGaussianBlur stdDeviation="30"/>
<feComposite in2="hardAlpha" operator="arithmetic" k2="-1" k3="1"/>
<feColorMatrix type="matrix" values="0 0 0 0 1 0 0 0 0 1 0 0 0 0 1 0 0 0 1 0"/>
<feBlend mode="normal" in2="shape" result="effect1_innerShadow_219_57"/>
</filter>
<radialGradient id="paint0_radial_219_57" cx="0" cy="0" r="1" gradientUnits="userSpaceOnUse" gradientTransform="translate(61.6194 166.167) rotate(-40.9122) scale(15.1412 11.1426)">
<stop stop-color="#3CC7F5"/>
<stop offset="0.0001" stop-color="#3CC7F5"/>
<stop offset="1" stop-color="#004DFF"/>
</radialGradient>
<radialGradient id="paint1_radial_219_57" cx="0" cy="0" r="1" gradientUnits="userSpaceOnUse" gradientTransform="translate(61.5327 166.121) rotate(-40.9122) scale(15.1412 11.1426)">
<stop stop-color="#3CC7F5"/>
<stop offset="0.0001" stop-color="#3CC7F5"/>
<stop offset="1" stop-color="#004DFF"/>
</radialGradient>
<radialGradient id="paint2_radial_219_57" cx="0" cy="0" r="1" gradientUnits="userSpaceOnUse" gradientTransform="translate(63.7432 157.858) rotate(58.9731) scale(13.2733 3.69558)">
<stop stop-color="white"/>
<stop offset="0.555017" stop-color="#BDDBF1" stop-opacity="0.25"/>
<stop offset="1" stop-color="#5686F5" stop-opacity="0"/>
</radialGradient>
<radialGradient id="paint3_radial_219_57" cx="0" cy="0" r="1" gradientUnits="userSpaceOnUse" gradientTransform="translate(58.2387 168.455) rotate(52.9232) scale(7.18919 3.40816)">
<stop stop-color="white"/>
<stop offset="0.673987" stop-color="#BDDBF1" stop-opacity="0.25"/>
<stop offset="1" stop-color="#5686F5" stop-opacity="0"/>
</radialGradient>
<radialGradient id="paint4_radial_219_57" cx="0" cy="0" r="1" gradientUnits="userSpaceOnUse" gradientTransform="translate(77.6177 142.165) rotate(-39.0214) scale(13.1501 9.56455)">
<stop stop-color="#3CC7F5"/>
<stop offset="0.0001" stop-color="#3CC7F5"/>
<stop offset="1" stop-color="#004DFF"/>
</radialGradient>
<radialGradient id="paint5_radial_219_57" cx="0" cy="0" r="1" gradientUnits="userSpaceOnUse" gradientTransform="translate(77.5403 142.127) rotate(-39.0214) scale(13.1501 9.56455)">
<stop stop-color="#3CC7F5"/>
<stop offset="0.0001" stop-color="#3CC7F5"/>
<stop offset="1" stop-color="#004DFF"/>
</radialGradient>
<radialGradient id="paint6_radial_219_57" cx="0" cy="0" r="1" gradientUnits="userSpaceOnUse" gradientTransform="translate(79.514 135.227) rotate(57.2503) scale(11.2919 3.23847)">
<stop stop-color="white"/>
<stop offset="0.555017" stop-color="#BDDBF1" stop-opacity="0.25"/>
<stop offset="1" stop-color="#5686F5" stop-opacity="0"/>
</radialGradient>
<radialGradient id="paint7_radial_219_57" cx="0" cy="0" r="1" gradientUnits="userSpaceOnUse" gradientTransform="translate(74.5993 144.075) rotate(51.0597) scale(6.1572 2.96662)">
<stop stop-color="white"/>
<stop offset="0.673987" stop-color="#BDDBF1" stop-opacity="0.25"/>
<stop offset="1" stop-color="#5686F5" stop-opacity="0"/>
</radialGradient>
<radialGradient id="paint8_radial_219_57" cx="0" cy="0" r="1" gradientUnits="userSpaceOnUse" gradientTransform="translate(94.1882 166.167) rotate(-40.9122) scale(15.1412 11.1426)">
<stop stop-color="#3CC7F5"/>
<stop offset="0.0001" stop-color="#3CC7F5"/>
<stop offset="1" stop-color="#004DFF"/>
</radialGradient>
<radialGradient id="paint9_radial_219_57" cx="0" cy="0" r="1" gradientUnits="userSpaceOnUse" gradientTransform="translate(94.1015 166.121) rotate(-40.9122) scale(15.1412 11.1426)">
<stop stop-color="#3CC7F5"/>
<stop offset="0.0001" stop-color="#3CC7F5"/>
<stop offset="1" stop-color="#004DFF"/>
</radialGradient>
<radialGradient id="paint10_radial_219_57" cx="0" cy="0" r="1" gradientUnits="userSpaceOnUse" gradientTransform="translate(96.312 157.858) rotate(58.9731) scale(13.2733 3.69558)">
<stop stop-color="white"/>
<stop offset="0.555017" stop-color="#BDDBF1" stop-opacity="0.25"/>
<stop offset="1" stop-color="#5686F5" stop-opacity="0"/>
</radialGradient>
<radialGradient id="paint11_radial_219_57" cx="0" cy="0" r="1" gradientUnits="userSpaceOnUse" gradientTransform="translate(90.8075 168.455) rotate(52.9232) scale(7.18919 3.40816)">
<stop stop-color="white"/>
<stop offset="0.673987" stop-color="#BDDBF1" stop-opacity="0.25"/>
<stop offset="1" stop-color="#5686F5" stop-opacity="0"/>
</radialGradient>
<radialGradient id="paint12_radial_219_57" cx="0" cy="0" r="1" gradientUnits="userSpaceOnUse" gradientTransform="translate(45.7003 142.034) rotate(-39.0214) scale(13.1501 9.56455)">
<stop stop-color="#3CC7F5"/>
<stop offset="0.0001" stop-color="#3CC7F5"/>
<stop offset="1" stop-color="#004DFF"/>
</radialGradient>
<radialGradient id="paint13_radial_219_57" cx="0" cy="0" r="1" gradientUnits="userSpaceOnUse" gradientTransform="translate(45.6229 141.995) rotate(-39.0214) scale(13.1501 9.56455)">
<stop stop-color="#3CC7F5"/>
<stop offset="0.0001" stop-color="#3CC7F5"/>
<stop offset="1" stop-color="#004DFF"/>
</radialGradient>
<radialGradient id="paint14_radial_219_57" cx="0" cy="0" r="1" gradientUnits="userSpaceOnUse" gradientTransform="translate(47.5966 135.096) rotate(57.2503) scale(11.2919 3.23847)">
<stop stop-color="white"/>
<stop offset="0.555017" stop-color="#BDDBF1" stop-opacity="0.25"/>
<stop offset="1" stop-color="#5686F5" stop-opacity="0"/>
</radialGradient>
<radialGradient id="paint15_radial_219_57" cx="0" cy="0" r="1" gradientUnits="userSpaceOnUse" gradientTransform="translate(42.6819 143.944) rotate(51.0597) scale(6.1572 2.96662)">
<stop stop-color="white"/>
<stop offset="0.673987" stop-color="#BDDBF1" stop-opacity="0.25"/>
<stop offset="1" stop-color="#5686F5" stop-opacity="0"/>
</radialGradient>
<radialGradient id="paint16_radial_219_57" cx="0" cy="0" r="1" gradientUnits="userSpaceOnUse" gradientTransform="translate(109.209 142.165) rotate(-39.021) scale(13.15 9.56449)">
<stop stop-color="#3CC7F5"/>
<stop offset="0.0001" stop-color="#3CC7F5"/>
<stop offset="1" stop-color="#004DFF"/>
</radialGradient>
<radialGradient id="paint17_radial_219_57" cx="0" cy="0" r="1" gradientUnits="userSpaceOnUse" gradientTransform="translate(109.132 142.127) rotate(-39.0214) scale(13.1501 9.56455)">
<stop stop-color="#3CC7F5"/>
<stop offset="0.0001" stop-color="#3CC7F5"/>
<stop offset="1" stop-color="#004DFF"/>
</radialGradient>
<radialGradient id="paint18_radial_219_57" cx="0" cy="0" r="1" gradientUnits="userSpaceOnUse" gradientTransform="translate(111.106 135.227) rotate(57.2503) scale(11.2919 3.23847)">
<stop stop-color="white"/>
<stop offset="0.555017" stop-color="#BDDBF1" stop-opacity="0.25"/>
<stop offset="1" stop-color="#5686F5" stop-opacity="0"/>
</radialGradient>
<radialGradient id="paint19_radial_219_57" cx="0" cy="0" r="1" gradientUnits="userSpaceOnUse" gradientTransform="translate(106.191 144.075) rotate(51.0597) scale(6.1572 2.96662)">
<stop stop-color="white"/>
<stop offset="0.673987" stop-color="#BDDBF1" stop-opacity="0.25"/>
<stop offset="1" stop-color="#5686F5" stop-opacity="0"/>
</radialGradient>
<linearGradient id="paint20_linear_219_57" x1="72.8812" y1="-8.70473e-06" x2="127.804" y2="86.9366" gradientUnits="userSpaceOnUse">
<stop stop-color="#9B87EB"/>
<stop offset="0.659096" stop-color="#3010AC"/>
</linearGradient>
<linearGradient id="paint21_linear_219_57" x1="9.94788" y1="22.6524" x2="141.817" y2="124.372" gradientUnits="userSpaceOnUse">
<stop stop-color="white"/>
<stop offset="1" stop-color="#C1C1C1"/>
</linearGradient>
</defs>
</svg>
