<svg width="142" height="163" viewBox="0 0 142 163" fill="none" xmlns="http://www.w3.org/2000/svg">
<g style="mix-blend-mode:color-burn" opacity="0.5" filter="url(#filter0_f_219_10)">
<path fill-rule="evenodd" clip-rule="evenodd" d="M69.6672 146.572C68.1709 149.568 65.1379 151.617 61.6398 151.617C56.658 151.617 52.6196 147.461 52.6196 142.333C52.6196 141.598 52.6993 140.855 52.8511 140.1C52.1251 141.885 51.7175 143.588 51.7175 145.25C51.7175 150.377 55.756 154.534 60.7377 154.534C65.2833 154.534 69.0436 151.073 69.6672 146.572Z" fill="url(#paint0_radial_219_10)" fill-opacity="0.3"/>
</g>
<path opacity="0.5" d="M69.6678 145.204C69.6678 150.331 65.6293 154.488 60.6476 154.488C55.6659 154.488 51.6274 150.331 51.6274 145.204C51.6274 140.076 55.5061 134.559 60.6476 127.462C64.9773 134.364 69.6678 140.076 69.6678 145.204Z" fill="url(#paint1_radial_219_10)"/>
<g style="mix-blend-mode:screen" opacity="0.3">
<ellipse cx="62.9477" cy="137.572" rx="9.24571" ry="9.72159" fill="url(#paint2_radial_219_10)"/>
</g>
<g style="mix-blend-mode:screen" opacity="0.3">
<ellipse cx="57.716" cy="148.169" rx="9.24571" ry="9.72159" fill="url(#paint3_radial_219_10)"/>
</g>
<g style="mix-blend-mode:color-burn" opacity="0.5" filter="url(#filter1_f_219_10)">
<path fill-rule="evenodd" clip-rule="evenodd" d="M85.358 122.456C84.022 124.957 81.3139 126.669 78.1906 126.669C73.7426 126.669 70.1368 123.198 70.1368 118.917C70.1368 118.303 70.208 117.682 70.3435 117.052C69.6953 118.542 69.3315 119.964 69.3315 121.352C69.3315 125.633 72.9373 129.104 77.3852 129.104C81.4439 129.104 84.8013 126.214 85.358 122.456Z" fill="url(#paint4_radial_219_10)" fill-opacity="0.3"/>
</g>
<path opacity="0.5" d="M85.3584 121.314C85.3584 125.595 81.7526 129.066 77.3047 129.066C72.8567 129.066 69.2509 125.595 69.2509 121.314C69.2509 117.032 72.714 112.425 77.3047 106.5C81.1705 112.263 85.3584 117.032 85.3584 121.314Z" fill="url(#paint5_radial_219_10)"/>
<g style="mix-blend-mode:screen" opacity="0.3">
<ellipse cx="79.3584" cy="114.942" rx="8.2551" ry="8.11708" fill="url(#paint6_radial_219_10)"/>
</g>
<g style="mix-blend-mode:screen" opacity="0.3">
<ellipse cx="74.6872" cy="123.789" rx="8.2551" ry="8.11708" fill="url(#paint7_radial_219_10)"/>
</g>
<g style="mix-blend-mode:color-burn" opacity="0.5" filter="url(#filter2_f_219_10)">
<path fill-rule="evenodd" clip-rule="evenodd" d="M103.557 146.572C102.061 149.568 99.0281 151.617 95.53 151.617C90.5483 151.617 86.5098 147.461 86.5098 142.333C86.5098 141.598 86.5896 140.855 86.7414 140.1C86.0153 141.885 85.6078 143.588 85.6078 145.25C85.6078 150.377 89.6463 154.534 94.628 154.534C99.1736 154.534 102.934 151.073 103.557 146.572Z" fill="url(#paint8_radial_219_10)" fill-opacity="0.3"/>
</g>
<path opacity="0.5" d="M103.558 145.204C103.558 150.331 99.5195 154.488 94.5378 154.488C89.556 154.488 85.5175 150.331 85.5175 145.204C85.5175 140.076 89.3962 134.559 94.5378 127.462C98.8675 134.364 103.558 140.076 103.558 145.204Z" fill="url(#paint9_radial_219_10)"/>
<g style="mix-blend-mode:screen" opacity="0.3">
<ellipse cx="96.8379" cy="137.572" rx="9.24571" ry="9.72159" fill="url(#paint10_radial_219_10)"/>
</g>
<g style="mix-blend-mode:screen" opacity="0.3">
<ellipse cx="91.6062" cy="148.169" rx="9.24571" ry="9.72159" fill="url(#paint11_radial_219_10)"/>
</g>
<g style="mix-blend-mode:color-burn" opacity="0.5" filter="url(#filter3_f_219_10)">
<path fill-rule="evenodd" clip-rule="evenodd" d="M52.1456 122.324C50.8096 124.826 48.1015 126.537 44.9782 126.537C40.5302 126.537 36.9244 123.066 36.9244 118.785C36.9244 118.171 36.9956 117.551 37.1311 116.921C36.4829 118.411 36.1191 119.833 36.1191 121.22C36.1191 125.502 39.7249 128.972 44.1728 128.972C48.2315 128.972 51.5889 126.083 52.1456 122.324Z" fill="url(#paint12_radial_219_10)" fill-opacity="0.3"/>
</g>
<path opacity="0.5" d="M52.146 121.182C52.146 125.463 48.5402 128.934 44.0923 128.934C39.6443 128.934 36.0385 125.463 36.0385 121.182C36.0385 116.901 39.5016 112.294 44.0923 106.368C47.9581 112.132 52.146 116.901 52.146 121.182Z" fill="url(#paint13_radial_219_10)"/>
<g style="mix-blend-mode:screen" opacity="0.3">
<ellipse cx="46.146" cy="114.81" rx="8.2551" ry="8.11708" fill="url(#paint14_radial_219_10)"/>
</g>
<g style="mix-blend-mode:screen" opacity="0.3">
<ellipse cx="41.4748" cy="123.658" rx="8.2551" ry="8.11708" fill="url(#paint15_radial_219_10)"/>
</g>
<g style="mix-blend-mode:color-burn" opacity="0.5" filter="url(#filter4_f_219_10)">
<path fill-rule="evenodd" clip-rule="evenodd" d="M118.231 122.456C116.895 124.957 114.187 126.669 111.064 126.669C106.616 126.669 103.01 123.198 103.01 118.917C103.01 118.303 103.082 117.682 103.217 117.052C102.569 118.542 102.205 119.964 102.205 121.352C102.205 125.633 105.811 129.104 110.259 129.104C114.317 129.104 117.675 126.214 118.231 122.456Z" fill="url(#paint16_radial_219_10)" fill-opacity="0.3"/>
</g>
<path opacity="0.5" d="M118.232 121.314C118.232 125.595 114.626 129.066 110.178 129.066C105.73 129.066 102.124 125.595 102.124 121.314C102.124 117.032 105.588 112.425 110.178 106.5C114.044 112.263 118.232 117.032 118.232 121.314Z" fill="url(#paint17_radial_219_10)"/>
<g style="mix-blend-mode:screen" opacity="0.3">
<ellipse cx="112.232" cy="114.942" rx="8.2551" ry="8.11708" fill="url(#paint18_radial_219_10)"/>
</g>
<g style="mix-blend-mode:screen" opacity="0.3">
<ellipse cx="107.561" cy="123.789" rx="8.2551" ry="8.11708" fill="url(#paint19_radial_219_10)"/>
</g>
<g filter="url(#filter5_i_219_10)">
<ellipse cx="105.922" cy="29.6409" rx="29.6539" ry="29.6409" fill="url(#paint20_linear_219_10)"/>
</g>
<mask id="path-22-inside-1_219_10" fill="white">
<path fill-rule="evenodd" clip-rule="evenodd" d="M108.11 103.119L50.8353 103.119C22.7597 103.119 0 80.4135 0 52.4047C0 24.396 22.7597 1.69048 50.8353 1.69048C73.4109 1.69048 92.5494 16.3714 99.1815 36.6856C102.026 35.9126 105.02 35.5 108.11 35.5C126.827 35.5 142 50.637 142 69.3095C142 87.982 126.827 103.119 108.11 103.119Z"/>
</mask>
<g filter="url(#filter6_i_219_10)">
<path fill-rule="evenodd" clip-rule="evenodd" d="M108.11 103.119L50.8353 103.119C22.7597 103.119 0 80.4135 0 52.4047C0 24.396 22.7597 1.69048 50.8353 1.69048C73.4109 1.69048 92.5494 16.3714 99.1815 36.6856C102.026 35.9126 105.02 35.5 108.11 35.5C126.827 35.5 142 50.637 142 69.3095C142 87.982 126.827 103.119 108.11 103.119Z" fill="url(#paint21_linear_219_10)"/>
</g>
<path d="M50.8353 103.119L50.8353 102.119H50.8353V103.119ZM108.11 103.119L108.11 104.119L108.11 104.119L108.11 103.119ZM99.1815 36.6856L98.2309 36.9959L98.526 37.8999L99.4437 37.6506L99.1815 36.6856ZM50.8353 104.119L108.11 104.119L108.11 102.119L50.8353 102.119L50.8353 104.119ZM-1 52.4047C-1 80.968 22.2097 104.119 50.8353 104.119V102.119C23.3098 102.119 1 79.8589 1 52.4047H-1ZM50.8353 0.690475C22.2097 0.690475 -1 23.8415 -1 52.4047H1C1 24.9506 23.3098 2.69048 50.8353 2.69048V0.690475ZM100.132 36.3752C93.3693 15.6606 73.855 0.690475 50.8353 0.690475V2.69048C72.9668 2.69048 91.7296 17.0822 98.2309 36.9959L100.132 36.3752ZM99.4437 37.6506C102.204 36.9006 105.109 36.5 108.11 36.5V34.5C104.93 34.5 101.849 34.9246 98.9192 35.7206L99.4437 37.6506ZM108.11 36.5C126.277 36.5 141 51.1916 141 69.3095H143C143 50.0825 127.377 34.5 108.11 34.5V36.5ZM141 69.3095C141 87.4274 126.277 102.119 108.11 102.119L108.11 104.119C127.377 104.119 143 88.5365 143 69.3095H141Z" fill="black" fill-opacity="0.05" mask="url(#path-22-inside-1_219_10)"/>
<defs>
<filter id="filter0_f_219_10" x="43.7175" y="132.1" width="33.9496" height="30.4339" filterUnits="userSpaceOnUse" color-interpolation-filters="sRGB">
<feFlood flood-opacity="0" result="BackgroundImageFix"/>
<feBlend mode="normal" in="SourceGraphic" in2="BackgroundImageFix" result="shape"/>
<feGaussianBlur stdDeviation="4" result="effect1_foregroundBlur_219_10"/>
</filter>
<filter id="filter1_f_219_10" x="61.3315" y="109.052" width="32.0265" height="28.0515" filterUnits="userSpaceOnUse" color-interpolation-filters="sRGB">
<feFlood flood-opacity="0" result="BackgroundImageFix"/>
<feBlend mode="normal" in="SourceGraphic" in2="BackgroundImageFix" result="shape"/>
<feGaussianBlur stdDeviation="4" result="effect1_foregroundBlur_219_10"/>
</filter>
<filter id="filter2_f_219_10" x="77.6078" y="132.1" width="33.9496" height="30.4339" filterUnits="userSpaceOnUse" color-interpolation-filters="sRGB">
<feFlood flood-opacity="0" result="BackgroundImageFix"/>
<feBlend mode="normal" in="SourceGraphic" in2="BackgroundImageFix" result="shape"/>
<feGaussianBlur stdDeviation="4" result="effect1_foregroundBlur_219_10"/>
</filter>
<filter id="filter3_f_219_10" x="28.1191" y="108.921" width="32.0265" height="28.0515" filterUnits="userSpaceOnUse" color-interpolation-filters="sRGB">
<feFlood flood-opacity="0" result="BackgroundImageFix"/>
<feBlend mode="normal" in="SourceGraphic" in2="BackgroundImageFix" result="shape"/>
<feGaussianBlur stdDeviation="4" result="effect1_foregroundBlur_219_10"/>
</filter>
<filter id="filter4_f_219_10" x="94.205" y="109.052" width="32.0265" height="28.0516" filterUnits="userSpaceOnUse" color-interpolation-filters="sRGB">
<feFlood flood-opacity="0" result="BackgroundImageFix"/>
<feBlend mode="normal" in="SourceGraphic" in2="BackgroundImageFix" result="shape"/>
<feGaussianBlur stdDeviation="4" result="effect1_foregroundBlur_219_10"/>
</filter>
<filter id="filter5_i_219_10" x="76.2683" y="0" width="59.3079" height="79.2818" filterUnits="userSpaceOnUse" color-interpolation-filters="sRGB">
<feFlood flood-opacity="0" result="BackgroundImageFix"/>
<feBlend mode="normal" in="SourceGraphic" in2="BackgroundImageFix" result="shape"/>
<feColorMatrix in="SourceAlpha" type="matrix" values="0 0 0 0 0 0 0 0 0 0 0 0 0 0 0 0 0 0 127 0" result="hardAlpha"/>
<feOffset dy="20"/>
<feGaussianBlur stdDeviation="35"/>
<feComposite in2="hardAlpha" operator="arithmetic" k2="-1" k3="1"/>
<feColorMatrix type="matrix" values="0 0 0 0 1 0 0 0 0 1 0 0 0 0 1 0 0 0 1 0"/>
<feBlend mode="overlay" in2="shape" result="effect1_innerShadow_219_10"/>
</filter>
<filter id="filter6_i_219_10" x="0" y="1.69048" width="142" height="150.075" filterUnits="userSpaceOnUse" color-interpolation-filters="sRGB">
<feFlood flood-opacity="0" result="BackgroundImageFix"/>
<feBlend mode="normal" in="SourceGraphic" in2="BackgroundImageFix" result="shape"/>
<feColorMatrix in="SourceAlpha" type="matrix" values="0 0 0 0 0 0 0 0 0 0 0 0 0 0 0 0 0 0 127 0" result="hardAlpha"/>
<feOffset dy="48.6468"/>
<feGaussianBlur stdDeviation="30"/>
<feComposite in2="hardAlpha" operator="arithmetic" k2="-1" k3="1"/>
<feColorMatrix type="matrix" values="0 0 0 0 1 0 0 0 0 1 0 0 0 0 1 0 0 0 1 0"/>
<feBlend mode="normal" in2="shape" result="effect1_innerShadow_219_10"/>
</filter>
<radialGradient id="paint0_radial_219_10" cx="0" cy="0" r="1" gradientUnits="userSpaceOnUse" gradientTransform="translate(60.7377 145.882) rotate(-39.7879) scale(15.495 11.33)">
<stop stop-color="#3CC7F5"/>
<stop offset="0.0001" stop-color="#3CC7F5"/>
<stop offset="1" stop-color="#004DFF"/>
</radialGradient>
<radialGradient id="paint1_radial_219_10" cx="0" cy="0" r="1" gradientUnits="userSpaceOnUse" gradientTransform="translate(60.6476 145.836) rotate(-39.7879) scale(15.495 11.33)">
<stop stop-color="#3CC7F5"/>
<stop offset="0.0001" stop-color="#3CC7F5"/>
<stop offset="1" stop-color="#004DFF"/>
</radialGradient>
<radialGradient id="paint2_radial_219_10" cx="0" cy="0" r="1" gradientUnits="userSpaceOnUse" gradientTransform="translate(62.9477 137.572) rotate(57.9574) scale(13.4185 3.80391)">
<stop stop-color="white"/>
<stop offset="0.555017" stop-color="#BDDBF1" stop-opacity="0.25"/>
<stop offset="1" stop-color="#5686F5" stop-opacity="0"/>
</radialGradient>
<radialGradient id="paint3_radial_219_10" cx="0" cy="0" r="1" gradientUnits="userSpaceOnUse" gradientTransform="translate(57.2199 148.169) rotate(51.8214) scale(7.29656 3.49426)">
<stop stop-color="white"/>
<stop offset="0.673987" stop-color="#BDDBF1" stop-opacity="0.25"/>
<stop offset="1" stop-color="#5686F5" stop-opacity="0"/>
</radialGradient>
<radialGradient id="paint4_radial_219_10" cx="0" cy="0" r="1" gradientUnits="userSpaceOnUse" gradientTransform="translate(77.3852 121.88) rotate(-37.9113) scale(13.4746 9.71284)">
<stop stop-color="#3CC7F5"/>
<stop offset="0.0001" stop-color="#3CC7F5"/>
<stop offset="1" stop-color="#004DFF"/>
</radialGradient>
<radialGradient id="paint5_radial_219_10" cx="0" cy="0" r="1" gradientUnits="userSpaceOnUse" gradientTransform="translate(77.3047 121.841) rotate(-37.9116) scale(13.4747 9.71289)">
<stop stop-color="#3CC7F5"/>
<stop offset="0.0001" stop-color="#3CC7F5"/>
<stop offset="1" stop-color="#004DFF"/>
</radialGradient>
<radialGradient id="paint6_radial_219_10" cx="0" cy="0" r="1" gradientUnits="userSpaceOnUse" gradientTransform="translate(79.3584 114.942) rotate(56.2052) scale(11.4279 3.32976)">
<stop stop-color="white"/>
<stop offset="0.555017" stop-color="#BDDBF1" stop-opacity="0.25"/>
<stop offset="1" stop-color="#5686F5" stop-opacity="0"/>
</radialGradient>
<radialGradient id="paint7_radial_219_10" cx="0" cy="0" r="1" gradientUnits="userSpaceOnUse" gradientTransform="translate(74.2442 123.789) rotate(49.9413) scale(6.25708 3.03771)">
<stop stop-color="white"/>
<stop offset="0.673987" stop-color="#BDDBF1" stop-opacity="0.25"/>
<stop offset="1" stop-color="#5686F5" stop-opacity="0"/>
</radialGradient>
<radialGradient id="paint8_radial_219_10" cx="0" cy="0" r="1" gradientUnits="userSpaceOnUse" gradientTransform="translate(94.628 145.882) rotate(-39.7879) scale(15.495 11.33)">
<stop stop-color="#3CC7F5"/>
<stop offset="0.0001" stop-color="#3CC7F5"/>
<stop offset="1" stop-color="#004DFF"/>
</radialGradient>
<radialGradient id="paint9_radial_219_10" cx="0" cy="0" r="1" gradientUnits="userSpaceOnUse" gradientTransform="translate(94.5378 145.836) rotate(-39.7879) scale(15.495 11.33)">
<stop stop-color="#3CC7F5"/>
<stop offset="0.0001" stop-color="#3CC7F5"/>
<stop offset="1" stop-color="#004DFF"/>
</radialGradient>
<radialGradient id="paint10_radial_219_10" cx="0" cy="0" r="1" gradientUnits="userSpaceOnUse" gradientTransform="translate(96.8379 137.572) rotate(57.9574) scale(13.4185 3.80391)">
<stop stop-color="white"/>
<stop offset="0.555017" stop-color="#BDDBF1" stop-opacity="0.25"/>
<stop offset="1" stop-color="#5686F5" stop-opacity="0"/>
</radialGradient>
<radialGradient id="paint11_radial_219_10" cx="0" cy="0" r="1" gradientUnits="userSpaceOnUse" gradientTransform="translate(91.1101 148.169) rotate(51.8214) scale(7.29656 3.49426)">
<stop stop-color="white"/>
<stop offset="0.673987" stop-color="#BDDBF1" stop-opacity="0.25"/>
<stop offset="1" stop-color="#5686F5" stop-opacity="0"/>
</radialGradient>
<radialGradient id="paint12_radial_219_10" cx="0" cy="0" r="1" gradientUnits="userSpaceOnUse" gradientTransform="translate(44.1728 121.748) rotate(-37.9113) scale(13.4746 9.71284)">
<stop stop-color="#3CC7F5"/>
<stop offset="0.0001" stop-color="#3CC7F5"/>
<stop offset="1" stop-color="#004DFF"/>
</radialGradient>
<radialGradient id="paint13_radial_219_10" cx="0" cy="0" r="1" gradientUnits="userSpaceOnUse" gradientTransform="translate(44.0923 121.71) rotate(-37.9116) scale(13.4747 9.71289)">
<stop stop-color="#3CC7F5"/>
<stop offset="0.0001" stop-color="#3CC7F5"/>
<stop offset="1" stop-color="#004DFF"/>
</radialGradient>
<radialGradient id="paint14_radial_219_10" cx="0" cy="0" r="1" gradientUnits="userSpaceOnUse" gradientTransform="translate(46.146 114.81) rotate(56.2052) scale(11.4279 3.32976)">
<stop stop-color="white"/>
<stop offset="0.555017" stop-color="#BDDBF1" stop-opacity="0.25"/>
<stop offset="1" stop-color="#5686F5" stop-opacity="0"/>
</radialGradient>
<radialGradient id="paint15_radial_219_10" cx="0" cy="0" r="1" gradientUnits="userSpaceOnUse" gradientTransform="translate(41.0318 123.658) rotate(49.9413) scale(6.25708 3.03771)">
<stop stop-color="white"/>
<stop offset="0.673987" stop-color="#BDDBF1" stop-opacity="0.25"/>
<stop offset="1" stop-color="#5686F5" stop-opacity="0"/>
</radialGradient>
<radialGradient id="paint16_radial_219_10" cx="0" cy="0" r="1" gradientUnits="userSpaceOnUse" gradientTransform="translate(110.259 121.88) rotate(-37.9116) scale(13.4747 9.71289)">
<stop stop-color="#3CC7F5"/>
<stop offset="0.0001" stop-color="#3CC7F5"/>
<stop offset="1" stop-color="#004DFF"/>
</radialGradient>
<radialGradient id="paint17_radial_219_10" cx="0" cy="0" r="1" gradientUnits="userSpaceOnUse" gradientTransform="translate(110.178 121.841) rotate(-37.9116) scale(13.4747 9.71289)">
<stop stop-color="#3CC7F5"/>
<stop offset="0.0001" stop-color="#3CC7F5"/>
<stop offset="1" stop-color="#004DFF"/>
</radialGradient>
<radialGradient id="paint18_radial_219_10" cx="0" cy="0" r="1" gradientUnits="userSpaceOnUse" gradientTransform="translate(112.232 114.942) rotate(56.2052) scale(11.4279 3.32976)">
<stop stop-color="white"/>
<stop offset="0.555017" stop-color="#BDDBF1" stop-opacity="0.25"/>
<stop offset="1" stop-color="#5686F5" stop-opacity="0"/>
</radialGradient>
<radialGradient id="paint19_radial_219_10" cx="0" cy="0" r="1" gradientUnits="userSpaceOnUse" gradientTransform="translate(107.118 123.789) rotate(49.9413) scale(6.25708 3.03771)">
<stop stop-color="white"/>
<stop offset="0.673987" stop-color="#BDDBF1" stop-opacity="0.25"/>
<stop offset="1" stop-color="#5686F5" stop-opacity="0"/>
</radialGradient>
<linearGradient id="paint20_linear_219_10" x1="105.922" y1="0" x2="105.922" y2="59.2818" gradientUnits="userSpaceOnUse">
<stop stop-color="#FFD358"/>
<stop offset="1" stop-color="#FA6C21"/>
</linearGradient>
<linearGradient id="paint21_linear_219_10" x1="9.94788" y1="1.69047" x2="141.817" y2="103.41" gradientUnits="userSpaceOnUse">
<stop stop-color="white"/>
<stop offset="1" stop-color="#C1C1C1"/>
</linearGradient>
</defs>
</svg>
