<svg width="142" height="162" viewBox="0 0 142 162" fill="none" xmlns="http://www.w3.org/2000/svg">
<g filter="url(#filter0_f_219_106)">
<path fill-rule="evenodd" clip-rule="evenodd" d="M69.4851 81.1429H46.6911L36.2634 114.492H47.8353L38.2019 148.762L70.1536 107.029L53.1409 107.029L69.4851 81.1429Z" fill="url(#paint0_linear_219_106)"/>
</g>
<g style="mix-blend-mode:color-burn" opacity="0.5" filter="url(#filter1_f_219_106)">
<path fill-rule="evenodd" clip-rule="evenodd" d="M83.9387 119.533C82.87 121.597 80.7035 123.009 78.2048 123.009C74.6464 123.009 71.7617 120.145 71.7617 116.613C71.7617 116.107 71.8187 115.595 71.927 115.075C71.4085 116.304 71.1175 117.477 71.1175 118.622C71.1175 122.155 74.0021 125.018 77.5605 125.018C80.8075 125.018 83.4935 122.634 83.9387 119.533Z" fill="url(#paint1_radial_219_106)" fill-opacity="0.3"/>
</g>
<path opacity="0.5" d="M83.9391 118.591C83.9391 122.123 81.0544 124.986 77.496 124.986C73.9377 124.986 71.053 122.123 71.053 118.591C71.053 115.058 73.8235 111.257 77.496 106.368C80.5887 111.123 83.9391 115.058 83.9391 118.591Z" fill="url(#paint2_radial_219_106)"/>
<g style="mix-blend-mode:screen" opacity="0.3">
<ellipse cx="79.139" cy="113.334" rx="6.60408" ry="6.69709" fill="url(#paint3_radial_219_106)"/>
</g>
<g style="mix-blend-mode:screen" opacity="0.3">
<ellipse cx="75.4021" cy="120.633" rx="6.60408" ry="6.69709" fill="url(#paint4_radial_219_106)"/>
</g>
<g style="mix-blend-mode:color-burn" opacity="0.5" filter="url(#filter2_f_219_106)">
<path fill-rule="evenodd" clip-rule="evenodd" d="M115.118 123.551C114.049 125.715 111.882 127.195 109.384 127.195C105.825 127.195 102.941 124.193 102.941 120.49C102.941 119.959 102.998 119.422 103.106 118.877C102.588 120.166 102.296 121.396 102.296 122.596C102.296 126.299 105.181 129.301 108.739 129.301C111.986 129.301 114.672 126.802 115.118 123.551Z" fill="url(#paint5_radial_219_106)" fill-opacity="0.3"/>
</g>
<path opacity="0.5" d="M115.118 122.563C115.118 126.266 112.233 129.268 108.675 129.268C105.117 129.268 102.232 126.266 102.232 122.563C102.232 118.86 105.003 114.875 108.675 109.749C111.768 114.734 115.118 118.86 115.118 122.563Z" fill="url(#paint6_radial_219_106)"/>
<g style="mix-blend-mode:screen" opacity="0.3">
<ellipse cx="110.318" cy="117.051" rx="6.60408" ry="7.02115" fill="url(#paint7_radial_219_106)"/>
</g>
<g style="mix-blend-mode:screen" opacity="0.3">
<ellipse cx="106.581" cy="124.704" rx="6.60408" ry="7.02115" fill="url(#paint8_radial_219_106)"/>
</g>
<g style="mix-blend-mode:color-burn" opacity="0.5" filter="url(#filter3_f_219_106)">
<path fill-rule="evenodd" clip-rule="evenodd" d="M101.02 146.007C99.6308 148.67 96.8145 150.492 93.5662 150.492C88.9403 150.492 85.1903 146.797 85.1903 142.24C85.1903 141.586 85.2643 140.926 85.4053 140.255C84.7311 141.841 84.3527 143.355 84.3527 144.832C84.3527 149.39 88.1027 153.085 92.7286 153.085C96.9496 153.085 100.441 150.008 101.02 146.007Z" fill="url(#paint9_radial_219_106)" fill-opacity="0.3"/>
</g>
<path opacity="0.5" d="M101.021 144.791C101.021 149.349 97.2707 153.044 92.6448 153.044C88.0189 153.044 84.2689 149.349 84.2689 144.791C84.2689 140.234 87.8706 135.329 92.6448 129.021C96.6653 135.156 101.021 140.234 101.021 144.791Z" fill="url(#paint10_radial_219_106)"/>
<g style="mix-blend-mode:screen" opacity="0.3">
<ellipse cx="94.7807" cy="138.008" rx="8.58531" ry="8.64141" fill="url(#paint11_radial_219_106)"/>
</g>
<g style="mix-blend-mode:screen" opacity="0.3">
<ellipse cx="89.9226" cy="147.427" rx="8.58531" ry="8.64141" fill="url(#paint12_radial_219_106)"/>
</g>
<g filter="url(#filter4_i_219_106)">
<ellipse cx="111.67" cy="29.6409" rx="29.6539" ry="29.6409" fill="url(#paint13_linear_219_106)"/>
</g>
<mask id="path-15-inside-1_219_106" fill="white">
<path fill-rule="evenodd" clip-rule="evenodd" d="M108.11 103.993H50.8353L50.8353 103.993C22.7597 103.993 0 81.2429 0 53.1796C0 25.1164 22.7597 2.36664 50.8353 2.36664C73.4109 2.36664 92.5495 17.0762 99.1815 37.4299C102.026 36.6554 105.02 36.242 108.11 36.242C126.827 36.242 142 51.4085 142 70.1174C142 88.8262 126.827 103.993 108.11 103.993Z"/>
</mask>
<g filter="url(#filter5_i_219_106)">
<path fill-rule="evenodd" clip-rule="evenodd" d="M108.11 103.993H50.8353L50.8353 103.993C22.7597 103.993 0 81.2429 0 53.1796C0 25.1164 22.7597 2.36664 50.8353 2.36664C73.4109 2.36664 92.5495 17.0762 99.1815 37.4299C102.026 36.6554 105.02 36.242 108.11 36.242C126.827 36.242 142 51.4085 142 70.1174C142 88.8262 126.827 103.993 108.11 103.993Z" fill="url(#paint14_linear_219_106)"/>
</g>
<path d="M50.8353 103.993L49.8591 103.776L49.5887 104.993H50.8353V103.993ZM108.11 103.993L108.11 104.993L108.11 104.993L108.11 103.993ZM50.8353 103.993L51.8115 104.21L52.0819 102.993H50.8353V103.993ZM99.1815 37.4299L98.2307 37.7397L98.5256 38.6449L99.4442 38.3948L99.1815 37.4299ZM50.8353 104.993H108.11V102.993H50.8353V104.993ZM49.8591 103.776L49.8591 103.776L51.8115 104.21L51.8115 104.21L49.8591 103.776ZM-1 53.1796C-1 81.7956 22.2079 104.993 50.8353 104.993V102.993C23.3116 102.993 1 80.6902 1 53.1796H-1ZM50.8353 1.36664C22.2079 1.36664 -1 24.5637 -1 53.1796H1C1 25.6691 23.3116 3.36664 50.8353 3.36664V1.36664ZM100.132 37.1201C93.37 16.3667 73.8563 1.36664 50.8353 1.36664V3.36664C72.9656 3.36664 91.7289 17.7857 98.2307 37.7397L100.132 37.1201ZM99.4442 38.3948C102.204 37.6434 105.109 37.242 108.11 37.242V35.242C104.93 35.242 101.848 35.6674 98.9188 36.465L99.4442 38.3948ZM108.11 37.242C126.275 37.242 141 51.9612 141 70.1174H143C143 50.8558 127.379 35.242 108.11 35.242V37.242ZM141 70.1174C141 88.2735 126.275 102.993 108.11 102.993L108.11 104.993C127.379 104.993 143 89.3789 143 70.1174H141Z" fill="black" fill-opacity="0.05" mask="url(#path-15-inside-1_219_106)"/>
<defs>
<filter id="filter0_f_219_106" x="31.2634" y="76.1429" width="43.8902" height="77.619" filterUnits="userSpaceOnUse" color-interpolation-filters="sRGB">
<feFlood flood-opacity="0" result="BackgroundImageFix"/>
<feBlend mode="normal" in="SourceGraphic" in2="BackgroundImageFix" result="shape"/>
<feGaussianBlur stdDeviation="2.5" result="effect1_foregroundBlur_219_106"/>
</filter>
<filter id="filter1_f_219_106" x="63.1174" y="107.075" width="28.8213" height="25.9429" filterUnits="userSpaceOnUse" color-interpolation-filters="sRGB">
<feFlood flood-opacity="0" result="BackgroundImageFix"/>
<feBlend mode="normal" in="SourceGraphic" in2="BackgroundImageFix" result="shape"/>
<feGaussianBlur stdDeviation="4" result="effect1_foregroundBlur_219_106"/>
</filter>
<filter id="filter2_f_219_106" x="94.2964" y="110.877" width="28.8212" height="26.4244" filterUnits="userSpaceOnUse" color-interpolation-filters="sRGB">
<feFlood flood-opacity="0" result="BackgroundImageFix"/>
<feBlend mode="normal" in="SourceGraphic" in2="BackgroundImageFix" result="shape"/>
<feGaussianBlur stdDeviation="4" result="effect1_foregroundBlur_219_106"/>
</filter>
<filter id="filter3_f_219_106" x="76.3527" y="132.255" width="32.6675" height="28.83" filterUnits="userSpaceOnUse" color-interpolation-filters="sRGB">
<feFlood flood-opacity="0" result="BackgroundImageFix"/>
<feBlend mode="normal" in="SourceGraphic" in2="BackgroundImageFix" result="shape"/>
<feGaussianBlur stdDeviation="4" result="effect1_foregroundBlur_219_106"/>
</filter>
<filter id="filter4_i_219_106" x="82.0159" y="0" width="59.3079" height="79.2818" filterUnits="userSpaceOnUse" color-interpolation-filters="sRGB">
<feFlood flood-opacity="0" result="BackgroundImageFix"/>
<feBlend mode="normal" in="SourceGraphic" in2="BackgroundImageFix" result="shape"/>
<feColorMatrix in="SourceAlpha" type="matrix" values="0 0 0 0 0 0 0 0 0 0 0 0 0 0 0 0 0 0 127 0" result="hardAlpha"/>
<feOffset dy="20"/>
<feGaussianBlur stdDeviation="35"/>
<feComposite in2="hardAlpha" operator="arithmetic" k2="-1" k3="1"/>
<feColorMatrix type="matrix" values="0 0 0 0 1 0 0 0 0 1 0 0 0 0 1 0 0 0 1 0"/>
<feBlend mode="overlay" in2="shape" result="effect1_innerShadow_219_106"/>
</filter>
<filter id="filter5_i_219_106" x="0" y="2.36664" width="142" height="150.273" filterUnits="userSpaceOnUse" color-interpolation-filters="sRGB">
<feFlood flood-opacity="0" result="BackgroundImageFix"/>
<feBlend mode="normal" in="SourceGraphic" in2="BackgroundImageFix" result="shape"/>
<feColorMatrix in="SourceAlpha" type="matrix" values="0 0 0 0 0 0 0 0 0 0 0 0 0 0 0 0 0 0 127 0" result="hardAlpha"/>
<feOffset dy="48.6468"/>
<feGaussianBlur stdDeviation="30"/>
<feComposite in2="hardAlpha" operator="arithmetic" k2="-1" k3="1"/>
<feColorMatrix type="matrix" values="0 0 0 0 1 0 0 0 0 1 0 0 0 0 1 0 0 0 1 0"/>
<feBlend mode="normal" in2="shape" result="effect1_innerShadow_219_106"/>
</filter>
<linearGradient id="paint0_linear_219_106" x1="53.2085" y1="81.1429" x2="53.2085" y2="148.762" gradientUnits="userSpaceOnUse">
<stop stop-color="#FFE176"/>
<stop offset="0.47859" stop-color="#FEC255"/>
<stop offset="1" stop-color="#FEA031"/>
</linearGradient>
<radialGradient id="paint1_radial_219_106" cx="0" cy="0" r="1" gradientUnits="userSpaceOnUse" gradientTransform="translate(77.5605 119.058) rotate(-38.7703) scale(10.9083 7.919)">
<stop stop-color="#3CC7F5"/>
<stop offset="0.0001" stop-color="#3CC7F5"/>
<stop offset="1" stop-color="#004DFF"/>
</radialGradient>
<radialGradient id="paint2_radial_219_106" cx="0" cy="0" r="1" gradientUnits="userSpaceOnUse" gradientTransform="translate(77.496 119.026) rotate(-38.7715) scale(10.9084 7.91917)">
<stop stop-color="#3CC7F5"/>
<stop offset="0.0001" stop-color="#3CC7F5"/>
<stop offset="1" stop-color="#004DFF"/>
</radialGradient>
<radialGradient id="paint3_radial_219_106" cx="0" cy="0" r="1" gradientUnits="userSpaceOnUse" gradientTransform="translate(79.139 113.334) rotate(57.0173) scale(9.34105 2.68881)">
<stop stop-color="white"/>
<stop offset="0.555017" stop-color="#BDDBF1" stop-opacity="0.25"/>
<stop offset="1" stop-color="#5686F5" stop-opacity="0"/>
</radialGradient>
<radialGradient id="paint4_radial_219_106" cx="0" cy="0" r="1" gradientUnits="userSpaceOnUse" gradientTransform="translate(75.0477 120.633) rotate(50.8095) scale(5.09811 2.46085)">
<stop stop-color="white"/>
<stop offset="0.673987" stop-color="#BDDBF1" stop-opacity="0.25"/>
<stop offset="1" stop-color="#5686F5" stop-opacity="0"/>
</radialGradient>
<radialGradient id="paint5_radial_219_106" cx="0" cy="0" r="1" gradientUnits="userSpaceOnUse" gradientTransform="translate(108.739 123.053) rotate(-40.0996) scale(11.1184 8.14556)">
<stop stop-color="#3CC7F5"/>
<stop offset="0.0001" stop-color="#3CC7F5"/>
<stop offset="1" stop-color="#004DFF"/>
</radialGradient>
<radialGradient id="paint6_radial_219_106" cx="0" cy="0" r="1" gradientUnits="userSpaceOnUse" gradientTransform="translate(108.675 123.019) rotate(-40.0996) scale(11.1184 8.14556)">
<stop stop-color="#3CC7F5"/>
<stop offset="0.0001" stop-color="#3CC7F5"/>
<stop offset="1" stop-color="#004DFF"/>
</radialGradient>
<radialGradient id="paint7_radial_219_106" cx="0" cy="0" r="1" gradientUnits="userSpaceOnUse" gradientTransform="translate(110.318 117.051) rotate(58.2414) scale(9.6613 2.72548)">
<stop stop-color="white"/>
<stop offset="0.555017" stop-color="#BDDBF1" stop-opacity="0.25"/>
<stop offset="1" stop-color="#5686F5" stop-opacity="0"/>
</radialGradient>
<radialGradient id="paint8_radial_219_106" cx="0" cy="0" r="1" gradientUnits="userSpaceOnUse" gradientTransform="translate(106.227 124.704) rotate(52.1287) scale(5.24768 2.50639)">
<stop stop-color="white"/>
<stop offset="0.673987" stop-color="#BDDBF1" stop-opacity="0.25"/>
<stop offset="1" stop-color="#5686F5" stop-opacity="0"/>
</radialGradient>
<radialGradient id="paint9_radial_219_106" cx="0" cy="0" r="1" gradientUnits="userSpaceOnUse" gradientTransform="translate(92.7286 145.394) rotate(-38.5624) scale(14.1396 10.2481)">
<stop stop-color="#3CC7F5"/>
<stop offset="0.0001" stop-color="#3CC7F5"/>
<stop offset="1" stop-color="#004DFF"/>
</radialGradient>
<radialGradient id="paint10_radial_219_106" cx="0" cy="0" r="1" gradientUnits="userSpaceOnUse" gradientTransform="translate(92.6448 145.353) rotate(-38.5626) scale(14.1397 10.2481)">
<stop stop-color="#3CC7F5"/>
<stop offset="0.0001" stop-color="#3CC7F5"/>
<stop offset="1" stop-color="#004DFF"/>
</radialGradient>
<radialGradient id="paint11_radial_219_106" cx="0" cy="0" r="1" gradientUnits="userSpaceOnUse" gradientTransform="translate(94.7807 138.008) rotate(56.8215) scale(12.0798 3.48768)">
<stop stop-color="white"/>
<stop offset="0.555017" stop-color="#BDDBF1" stop-opacity="0.25"/>
<stop offset="1" stop-color="#5686F5" stop-opacity="0"/>
</radialGradient>
<radialGradient id="paint12_radial_219_106" cx="0" cy="0" r="1" gradientUnits="userSpaceOnUse" gradientTransform="translate(89.462 147.427) rotate(50.5996) scale(6.59795 3.18953)">
<stop stop-color="white"/>
<stop offset="0.673987" stop-color="#BDDBF1" stop-opacity="0.25"/>
<stop offset="1" stop-color="#5686F5" stop-opacity="0"/>
</radialGradient>
<linearGradient id="paint13_linear_219_106" x1="111.67" y1="0" x2="111.67" y2="59.2818" gradientUnits="userSpaceOnUse">
<stop stop-color="#FFD358"/>
<stop offset="1" stop-color="#FA6C21"/>
</linearGradient>
<linearGradient id="paint14_linear_219_106" x1="9.94788" y1="2.36664" x2="142.008" y2="104.036" gradientUnits="userSpaceOnUse">
<stop stop-color="white"/>
<stop offset="1" stop-color="#C1C1C1"/>
</linearGradient>
</defs>
</svg>
