<svg width="31" height="27" viewBox="0 0 31 27" fill="none" xmlns="http://www.w3.org/2000/svg">
<path d="M12.5849 10.4295L2.27415 10.4414C2.05249 10.4417 1.8331 10.3993 1.62834 10.3168C1.42358 10.2342 1.23761 10.1131 1.08115 9.96046C0.924694 9.80777 0.800623 9.6265 0.716469 9.42709C0.632315 9.22769 0.589725 9.01407 0.590783 8.79853C0.589169 8.583 0.631208 8.36929 0.714847 8.16968C0.798487 7.97008 0.92209 7.78851 1.07815 7.63546C1.23421 7.48242 1.41988 7.36088 1.62442 7.27786C1.82897 7.19485 2.04825 7.152 2.2699 7.15175L12.5806 7.13981C13.0812 7.13924 13.5613 6.94597 13.9157 6.60228C14.2702 6.25858 14.4704 5.7924 14.4724 5.30562C14.4718 4.81714 14.2715 4.34892 13.9159 4.00392C13.5602 3.65892 13.0782 3.46541 12.5759 3.46599L9.4565 3.4696C9.00789 3.47012 8.5774 3.29732 8.25979 2.98922C7.94219 2.68112 7.76331 2.26297 7.76275 1.82673C7.76219 1.39049 7.93998 0.971904 8.25679 0.663069C8.57361 0.354234 9.00365 0.180436 9.45226 0.179917L12.5717 0.176307C13.9694 0.177298 15.3099 0.717545 16.2986 1.67847C17.2873 2.63939 17.8435 3.94246 17.8453 5.30172C17.8444 6.65927 17.2901 7.96113 16.3042 8.92221C15.3183 9.88328 13.9809 10.4253 12.5849 10.4295V10.4295Z" fill="white"/>
<path d="M24.948 15.1521L2.28014 15.1783C2.05849 15.1786 1.83909 15.1362 1.63433 15.0536C1.42957 14.9711 1.24359 14.85 1.08713 14.6973C0.930676 14.5446 0.806604 14.3633 0.72245 14.1639C0.638295 13.9645 0.595705 13.7509 0.596763 13.5353C0.595149 13.3198 0.637188 13.1061 0.720828 12.9065C0.804468 12.7069 0.928072 12.5253 1.08414 12.3722C1.2402 12.2192 1.42586 12.0977 1.63041 12.0146C1.83496 11.9316 2.05424 11.8888 2.2759 11.8885L24.9438 11.8623C25.5035 11.8616 26.0399 11.6455 26.4361 11.2611C26.8323 10.8767 27.0559 10.3553 27.0578 9.81107C27.0545 9.26681 26.8295 8.74599 26.4323 8.36252C26.0351 7.97905 25.4982 7.76413 24.9385 7.76478L22.0416 7.76814C21.593 7.76866 21.1625 7.59585 20.8449 7.28774C20.5273 6.97963 20.3487 6.56144 20.3481 6.12518C20.3478 5.90917 20.3911 5.69524 20.4759 5.49557C20.5606 5.2959 20.685 5.11444 20.8419 4.96151C20.9988 4.80859 21.185 4.68719 21.3901 4.60429C21.5953 4.52139 21.8152 4.4786 22.0374 4.47834L24.9847 4.47493C25.7056 4.4741 26.4197 4.61135 27.0861 4.87886C27.7525 5.14638 28.3581 5.5389 28.8685 6.03404C29.3789 6.52918 29.7842 7.11724 30.0609 7.76463C30.3376 8.41201 30.4805 9.10604 30.4814 9.80711C30.4824 10.5123 30.3394 11.2107 30.0612 11.862C29.783 12.5133 29.375 13.1044 28.8605 13.6014C28.346 14.0984 27.7353 14.4913 27.0637 14.7575C26.3922 15.0236 25.6732 15.1577 24.948 15.1521V15.1521Z" fill="white"/>
<path d="M15.8166 26.9814L11.5322 26.9863C11.0836 26.9869 10.6531 26.8141 10.3355 26.506C10.0179 26.1979 9.83905 25.7797 9.83849 25.3434C9.83821 25.1279 9.88189 24.9144 9.96676 24.7153C10.0516 24.5162 10.176 24.3354 10.333 24.1832C10.49 24.0311 10.6765 23.9107 10.8815 23.8288C11.0866 23.747 11.3064 23.7054 11.528 23.7065L15.8124 23.7015C16.329 23.6983 16.8233 23.4963 17.1873 23.1397C17.5512 22.7831 17.7552 22.3008 17.7545 21.7983C17.7539 21.2968 17.5485 20.816 17.1833 20.4618C16.8181 20.1076 16.3232 19.9089 15.8075 19.9095L2.28579 19.9251C1.83987 19.9257 1.41196 19.7539 1.09626 19.4476C0.780548 19.1414 0.602992 18.7257 0.602433 18.2921C0.60082 18.0765 0.642858 17.8628 0.726498 17.6632C0.810137 17.4636 0.933741 17.2821 1.0898 17.129C1.24587 16.976 1.43153 16.8544 1.63608 16.7714C1.84062 16.6884 2.05991 16.6455 2.28156 16.6453L15.8032 16.6296C17.2145 16.628 18.5687 17.1709 19.5688 18.1392C20.5689 19.1075 21.1331 20.4221 21.1375 21.7944C21.1366 23.1677 20.576 24.4846 19.5787 25.4567C18.5814 26.4289 17.2287 26.9771 15.8166 26.9814V26.9814Z" fill="white"/>
</svg>
